<svg xmlns="http://www.w3.org/2000/svg" xmlns:xlink="http://www.w3.org/1999/xlink" version="1.1" x="0px" y="0px" viewBox="0 0 100 125" enable-background="new 0 0 100 100" xml:space="preserve"><path d="M87.636,41.905c6.722,15.126,2.655,23.889,2.655,23.889s-1.767,8.204-6.061,15.545c-7.083,1.525-8.857,1.938-18.379,3.874  c-1.849-9.713-1.868-10.89-1.907-11.073c-8.8,3.521-7.213,6.173-13.244,13.761c-6.471,1.221-35.684,8.146-37.432,7.404  c-1.472-4.126,0.448-3.016-0.205-4.415c-3.376-7.238,12.167-6.155,19.544-16.735c6.05-9.488,12.212-18.342,15.844-23.378  c2.013-8.223-7.314-27.813-9.916-40.188c10.144-1.645,13.052,3.317,18.487,2.292c-0.06-0.273-0.748-3.895-1.049-5.258  c2.071-0.391,7.669-1.768,10.775-2.354c0,0-0.201-1.159,1.284,5.386c4.552-0.589,4.372-5.667,12.532-7.456  C83.916,36.724,87.636,41.905,87.636,41.905z"/><text x="0" y="115" fill="#000000" font-size="5px" font-weight="bold" font-family="'Helvetica Neue', Helvetica, Arial-Unicode, Arial, Sans-serif"></text><text x="0" y="120" fill="#000000" font-size="5px" font-weight="bold" font-family="'Helvetica Neue', Helvetica, Arial-Unicode, Arial, Sans-serif"></text></svg>