<svg xmlns="http://www.w3.org/2000/svg" xmlns:xlink="http://www.w3.org/1999/xlink" viewBox="0 0 58 75" version="1.1" x="0px" y="0px"><title>193 -Coat- (Solid)</title><desc>Created with Sketch.</desc><g stroke="none" stroke-width="1" fill="none" fill-rule="evenodd"><g transform="translate(-360.000000, -2630.000000)" fill="#000000"><g transform="translate(360.000000, 2629.000000)"><path d="M36.0002,19.9963 L32.0002,19.9963 C31.4482,19.9963 31.0002,20.4433 31.0002,20.9963 C31.0002,21.5493 31.4482,21.9963 32.0002,21.9963 L36.0002,21.9963 C36.5522,21.9963 37.0002,21.5493 37.0002,20.9963 C37.0002,20.4433 36.5522,19.9963 36.0002,19.9963"/><path d="M25.0002,47.9963 L19.0002,47.9963 C18.4482,47.9963 18.0002,48.4433 18.0002,48.9963 C18.0002,49.5493 18.4482,49.9963 19.0002,49.9963 L25.0002,49.9963 C25.5522,49.9963 26.0002,49.5493 26.0002,48.9963 C26.0002,48.4433 25.5522,47.9963 25.0002,47.9963"/><path d="M33.0002,49.9963 L39.0002,49.9963 C39.5522,49.9963 40.0002,49.5493 40.0002,48.9963 C40.0002,48.4433 39.5522,47.9963 39.0002,47.9963 L33.0002,47.9963 C32.4482,47.9963 32.0002,48.4433 32.0002,48.9963 C32.0002,49.5493 32.4482,49.9963 33.0002,49.9963"/><path d="M50.6255,37.6706 L41.7495,21.6126 C41.5715,21.2916 41.2345,21.0956 40.8745,21.0956 C40.8375,21.0956 40.7985,21.0976 40.7605,21.1026 C40.3585,21.1486 40.0235,21.4316 39.9125,21.8216 C39.1235,24.5866 37.9145,27.5586 36.1055,31.1766 C36.0365,31.3156 36.0005,31.4686 36.0005,31.6246 L36.0005,31.9966 L27.7245,31.9966 L26.0655,20.3826 L31.5315,15.4636 C33.7745,17.7146 36.8015,18.9966 40.0005,18.9966 C41.8965,18.9966 43.7535,18.5396 45.4375,17.6776 L53.8115,36.3186 L50.6255,37.6706 Z M38.0955,41.5876 L38.1095,41.6106 C40.6555,45.6186 42.0005,50.2476 42.0005,54.9966 L42.0005,58.9966 L31.5815,58.9966 L28.8675,39.9966 L37.0005,39.9966 C37.0755,39.9966 37.1515,39.9936 37.2265,39.9876 C37.4935,40.5546 37.8015,41.1246 38.0955,41.5876 L38.0955,41.5876 Z M16.0005,58.9966 L16.0005,54.9966 C16.0005,50.2466 17.3455,45.6176 19.9065,41.5846 C20.1975,41.1266 20.5055,40.5566 20.7745,39.9876 C20.8495,39.9936 20.9245,39.9966 21.0005,39.9966 L26.8475,39.9966 L29.5615,58.9966 L16.0005,58.9966 Z M18.0875,21.8216 C17.9765,21.4316 17.6415,21.1486 17.2395,21.1026 C16.8425,21.0536 16.4475,21.2566 16.2515,21.6126 L7.4505,37.5326 L4.2535,36.1746 L12.5625,17.6776 C14.2465,18.5396 16.1035,18.9966 18.0005,18.9966 C20.7995,18.9966 23.4465,18.0056 25.5575,16.2796 L24.0865,19.5896 C24.0435,19.6876 24.0205,19.7906 24.0095,19.8956 C24.0065,19.9306 24.0095,19.9646 24.0105,19.9996 C24.0105,20.0456 24.0035,20.0916 24.0105,20.1376 L25.7045,31.9966 L22.0005,31.9966 L22.0005,31.6246 C22.0005,31.4686 21.9645,31.3156 21.8945,31.1766 C20.0865,27.5586 18.8765,24.5866 18.0875,21.8216 L18.0875,21.8216 Z M24.8245,4.0636 L27.6535,10.4306 C27.6545,10.4316 27.6555,10.4326 27.6565,10.4346 L27.9055,10.9966 L27.4205,12.0876 L24.6885,10.7216 L25.7075,9.7036 C25.9625,9.4486 26.0605,9.0766 25.9645,8.7296 C25.8675,8.3816 25.5925,8.1136 25.2425,8.0266 L22.6195,7.3706 L24.8245,4.0636 Z M31.4615,2.9966 L29.0005,8.5346 L26.5395,2.9966 L31.4615,2.9966 Z M33.1755,4.0626 L35.3805,7.3706 L32.7575,8.0266 C32.4075,8.1136 32.1325,8.3816 32.0365,8.7296 C31.9405,9.0766 32.0385,9.4486 32.2935,9.7036 L33.5475,10.9586 L27.8205,16.1116 L33.1755,4.0626 Z M57.9125,40.5656 L43.9245,9.4276 C44.1245,7.6706 43.2165,5.9866 41.6145,5.1846 L33.4585,1.1076 C33.4065,1.0796 33.3495,1.0626 33.2925,1.0446 C33.2725,1.0386 33.2545,1.0306 33.2345,1.0256 C33.2035,1.0186 33.1735,1.0126 33.1425,1.0086 C33.1255,1.0056 33.1085,1.0076 33.0915,1.0056 C33.0725,1.0036 33.0545,1.0016 33.0365,1.0006 C33.0235,1.0006 33.0125,0.9966 33.0005,0.9966 L25.0005,0.9966 C24.9975,0.9966 24.9945,0.9976 24.9915,0.9976 C24.9805,0.9976 24.9705,1.0006 24.9605,1.0006 C24.9425,1.0016 24.9265,1.0036 24.9095,1.0056 C24.8915,1.0076 24.8745,1.0056 24.8565,1.0086 C24.8255,1.0126 24.7955,1.0186 24.7655,1.0256 C24.7455,1.0306 24.7275,1.0386 24.7075,1.0456 C24.6705,1.0566 24.6315,1.0656 24.5965,1.0816 C24.5955,1.0816 24.5945,1.0816 24.5935,1.0826 L24.5935,1.0826 C24.5745,1.0906 24.5575,1.0996 24.5395,1.1086 L16.3855,5.1846 C14.7835,5.9866 13.8765,7.6706 14.0755,9.4276 L2.0115,36.2846 L2.0095,36.2866 L0.0885,40.5656 C-0.0215,40.8086 -0.0285,41.0856 0.0665,41.3346 C0.1615,41.5826 0.3525,41.7826 0.5955,41.8906 L5.1695,43.9116 C5.3005,43.9686 5.4375,43.9966 5.5725,43.9966 C5.9265,43.9966 6.2675,43.8076 6.4485,43.4796 L8.7645,39.2896 L8.7645,39.2886 L16.8775,24.6136 C17.6435,26.8056 18.6605,29.1636 20.0005,31.8596 L20.0005,32.1806 C18.8385,32.5946 18.0005,33.6946 18.0005,34.9966 L18.0005,36.9966 C18.0005,37.8536 18.3665,38.6236 18.9445,39.1706 C18.7155,39.6526 18.4535,40.1406 18.2025,40.5366 C15.4535,44.8666 14.0005,49.8666 14.0005,54.9966 L14.0005,59.9966 C14.0005,60.5486 14.4475,60.9966 15.0005,60.9966 L30.7145,60.9966 L43.0005,60.9966 C43.5525,60.9966 44.0005,60.5486 44.0005,59.9966 L44.0005,54.9966 C44.0005,49.8666 42.5475,44.8666 39.7975,40.5366 L39.7815,40.5116 C39.5405,40.1326 39.2825,39.6496 39.0555,39.1706 C39.6345,38.6236 40.0005,37.8536 40.0005,36.9966 L40.0005,34.9966 C40.0005,33.6946 39.1615,32.5946 38.0005,32.1806 L38.0005,31.8596 C39.3395,29.1636 40.3575,26.8056 41.1235,24.6136 L51.5515,43.4796 C51.7335,43.8076 52.0735,43.9966 52.4275,43.9966 C52.5625,43.9966 52.6995,43.9686 52.8315,43.9116 L57.4045,41.8906 C57.6475,41.7826 57.8385,41.5826 57.9335,41.3346 C58.0285,41.0856 58.0215,40.8086 57.9125,40.5656 L57.9125,40.5656 Z"/></g></g></g><text x="0" y="75" fill="#000000" font-size="5px" font-weight="bold" font-family="'Helvetica Neue', Helvetica, Arial-Unicode, Arial, Sans-serif"></text><text x="0" y="80" fill="#000000" font-size="5px" font-weight="bold" font-family="'Helvetica Neue', Helvetica, Arial-Unicode, Arial, Sans-serif"></text></svg>