<svg xmlns="http://www.w3.org/2000/svg" xmlns:xlink="http://www.w3.org/1999/xlink" version="1.1" x="0px" y="0px" viewBox="0 0 100 125" enable-background="new 0 0 100 100" xml:space="preserve"><path d="M93.735,43.416c-2.336-3.028-6.63-4.765-11.777-4.765c-1.451,0-2.973,0.153-4.541,0.424  c-2.974,0.606-5.857,1.608-8.024,2.484c-2.648,1.07-5.377,2.526-8.341,4.452c-4.99,3.242-8.995,6.805-11.9,10.589  c-1.873,2.439-3.501,5.133-5.076,7.738c-1.043,1.725-2.121,3.51-3.268,5.216c-0.232,0.344-0.505,0.785-0.821,1.294  c-1.37,2.206-3.502,5.626-6.497,8.346c2.904-1.171,5.762-3.01,8.712-5.622c4.167-3.69,8.985-7.258,14.731-10.91  c3.946-2.507,8.026-5.1,12.631-6.554c4.175-1.319,8.624-1.852,12.925-2.369c1.093-0.131,2.186-0.262,3.275-0.405l0.193-0.026  c3.034-0.398,8.114-1.064,9.12-4.907C95.48,46.861,94.991,45.043,93.735,43.416z"/><path d="M38.684,70.04c0.327-0.527,0.611-0.982,0.85-1.339c1.126-1.676,2.195-3.445,3.229-5.154  c0.477-0.789,0.962-1.586,1.455-2.382c-0.31,0.003-0.631,0.01-0.93,0.01c-14.623,0.001-17.61-3.868-18.543-7.292  c-0.148-0.542-0.227-1.361-0.255-2.354c-0.547,0.309-1.342,0.774-2.301,1.384c-0.913,0.579-1.956,1.287-3.042,2.09  c-0.532,0.415-1.104,0.819-1.639,1.281c-0.549,0.448-1.101,0.91-1.621,1.405c-0.542,0.475-1.042,0.989-1.529,1.5  c-0.511,0.493-0.924,1.048-1.364,1.557c-0.44,0.509-0.767,1.068-1.132,1.563c-0.339,0.51-0.581,1.036-0.849,1.499  c-0.252,0.471-0.379,0.944-0.547,1.343c-0.181,0.398-0.233,0.771-0.295,1.074c-0.124,0.608-0.195,0.955-0.195,0.955l-0.01,0.048  c-0.029,0.143-0.168,0.235-0.311,0.206c-0.139-0.028-0.229-0.161-0.208-0.3c0,0,0.058-0.371,0.16-1.019  c0.053-0.325,0.094-0.727,0.264-1.152c0.157-0.426,0.276-0.938,0.518-1.442c0.256-0.496,0.491-1.063,0.822-1.61  c0.355-0.53,0.678-1.132,1.109-1.678c0.431-0.545,0.841-1.144,1.343-1.673c0.481-0.55,0.975-1.103,1.51-1.614  c0.515-0.534,1.061-1.031,1.605-1.516c0.531-0.5,1.097-0.937,1.625-1.386c1.077-0.871,2.115-1.642,3.024-2.275  c1.612-1.126,2.816-1.84,3.06-1.983c0.057-3.082,0.409-7.036,0.716-9.995C19.875,43.006,6.268,52.304,5.425,63.761  c-0.251,3.417,1.041,6.756,3.736,9.657c4.002,4.308,10.931,7.317,16.849,7.317c0,0,0.001,0,0.001,0c0.436,0,0.862-0.017,1.278-0.05  c0.619-0.05,1.23-0.13,1.838-0.233C33.748,77.981,36.895,72.92,38.684,70.04z"/><path d="M33.461,30.789c0.705,0.454,1.754,0.267,3.119-0.562c0.693-0.421,1.526-0.945,2.464-1.537  c3.304-2.081,7.721-4.863,12.127-7.016c-0.351,0.045-0.706,0.074-1.075,0.074c-1.856,0-3.641-0.557-5.531-1.147  c-1.81-0.565-3.681-1.149-5.644-1.212l-0.263-0.004c-2.733,0-5.036,1.366-6.802,3.991C31.709,26.227,32.008,29.848,33.461,30.789z"/><path d="M26.119,47.245c1.978,2.303,8.963,8.247,25.846,3.954c2.361-2.27,5.116-4.436,8.251-6.473  c3.047-1.98,5.861-3.48,8.601-4.588c1.527-0.617,3.406-1.296,5.425-1.867c-1.524-6.273-3.024-12.982-3.169-13.635  c-0.975-4.39-6.187-5.175-9.804-4.702c-5.092,0.665-9.772,3.161-14.175,5.663c-2.454,1.394-4.846,2.887-7.234,4.39  c-0.946,0.596-1.786,1.125-2.486,1.55c-1.13,0.686-2.15,1.03-3.052,1.03c-0.623,0-1.189-0.164-1.695-0.492  c-1.586-1.027-2.142-3.502-2.294-5.799c-0.17,0.411-0.334,0.833-0.487,1.28c-1.826,5.335-2.516,8.687-2.966,10.937  C26.601,41.041,26.285,44.336,26.119,47.245z"/><text x="0" y="115" fill="#000000" font-size="5px" font-weight="bold" font-family="'Helvetica Neue', Helvetica, Arial-Unicode, Arial, Sans-serif"></text><text x="0" y="120" fill="#000000" font-size="5px" font-weight="bold" font-family="'Helvetica Neue', Helvetica, Arial-Unicode, Arial, Sans-serif"></text></svg>