<svg xmlns="http://www.w3.org/2000/svg" xmlns:xlink="http://www.w3.org/1999/xlink" viewBox="0 0 43 75" version="1.1" x="0px" y="0px"><title>142 -Dress- (Solid)</title><desc>Created with Sketch.</desc><g stroke="none" stroke-width="1" fill="none" fill-rule="evenodd"><g transform="translate(-247.000000, -2030.000000)" fill="#000000"><g transform="translate(247.000000, 2029.000000)"><path d="M30.1105,30.4543 C30.2315,30.7173 31.8215,34.3693 30.0255,39.7713 C29.9075,40.2823 27.2595,51.8293 27.0175,58.9963 L22.1415,58.9963 C22.2495,58.1763 22.3955,57.0373 22.5635,55.6683 C22.5775,55.5583 22.5905,55.4553 22.6035,55.3433 C22.6315,55.1173 22.6605,54.8783 22.6895,54.6413 C22.7095,54.4703 22.7295,54.3043 22.7515,54.1273 C22.7795,53.8873 22.8095,53.6363 22.8395,53.3863 C22.8615,53.1963 22.8835,53.0093 22.9065,52.8133 C22.9365,52.5613 22.9665,52.3023 22.9965,52.0413 C23.0205,51.8333 23.0435,51.6263 23.0685,51.4133 C23.0975,51.1553 23.1275,50.8923 23.1575,50.6273 C23.1835,50.3933 23.2095,50.1603 23.2355,49.9213 C23.2655,49.6583 23.2945,49.3923 23.3235,49.1233 C23.3505,48.8773 23.3775,48.6303 23.4045,48.3803 C23.4335,48.1033 23.4635,47.8263 23.4925,47.5443 C23.5195,47.2923 23.5455,47.0393 23.5725,46.7843 C23.6025,46.4953 23.6325,46.2053 23.6615,45.9123 C23.6885,45.6543 23.7145,45.3943 23.7395,45.1333 C23.7695,44.8373 23.7985,44.5403 23.8285,44.2403 C23.8535,43.9783 23.8785,43.7153 23.9035,43.4513 C23.9325,43.1463 23.9615,42.8433 23.9905,42.5363 C24.0145,42.2683 24.0385,41.9993 24.0635,41.7293 C24.0915,41.4203 24.1195,41.1123 24.1465,40.8013 C24.1685,40.5463 24.1905,40.2903 24.2125,40.0343 C24.2405,39.7053 24.2685,39.3763 24.2955,39.0453 C24.3135,38.8293 24.3295,38.6123 24.3475,38.3963 C24.3765,38.0263 24.4065,37.6573 24.4345,37.2883 C24.4385,37.2363 24.4415,37.1853 24.4455,37.1343 C24.5165,36.1903 24.5815,35.2513 24.6405,34.3183 C24.6495,34.1813 24.6585,34.0423 24.6675,33.9053 C24.6895,33.5513 24.7085,33.2013 24.7275,32.8503 C24.7405,32.6343 24.7535,32.4163 24.7645,32.2023 C24.7825,31.8623 24.7975,31.5293 24.8135,31.1943 C24.8245,30.9733 24.8355,30.7513 24.8445,30.5323 C24.8585,30.2073 24.8705,29.8883 24.8815,29.5683 C24.8905,29.3453 24.8985,29.1213 24.9055,28.9013 C24.9155,28.5903 24.9235,28.2873 24.9305,27.9833 C24.9365,27.7593 24.9425,27.5353 24.9465,27.3153 C24.9515,27.0213 24.9555,26.7333 24.9585,26.4463 C24.9605,26.2273 24.9625,26.0093 24.9635,25.7943 C24.9645,25.5153 24.9645,25.2423 24.9625,24.9703 C24.9615,24.7573 24.9595,24.5463 24.9565,24.3383 C24.9525,24.0773 24.9475,23.8203 24.9405,23.5673 C24.9355,23.3623 24.9295,23.1613 24.9225,22.9623 C24.9135,22.7203 24.9035,22.4823 24.8925,22.2493 C24.8825,22.0513 24.8705,21.8603 24.8585,21.6693 C24.8445,21.4493 24.8305,21.2313 24.8145,21.0213 C24.7995,20.8343 24.7815,20.6553 24.7645,20.4763 C24.7455,20.2793 24.7265,20.0823 24.7045,19.8953 C24.6845,19.7183 24.6595,19.5523 24.6365,19.3843 C24.6125,19.2143 24.5895,19.0413 24.5625,18.8813 C24.5345,18.7113 24.5015,18.5583 24.4705,18.4003 C24.4425,18.2623 24.4165,18.1173 24.3855,17.9883 C24.3455,17.8183 24.2995,17.6683 24.2545,17.5153 C24.2265,17.4193 24.2015,17.3143 24.1715,17.2253 C24.0935,16.9933 24.0095,16.7823 23.9175,16.5993 C23.9145,16.5923 23.9035,16.5663 23.8855,16.5273 C23.7795,16.2873 23.3815,15.4273 22.6855,14.2603 C23.8125,12.5653 25.4535,10.5483 27.5975,9.0153 C27.6015,9.0123 27.6055,9.0113 27.6095,9.0093 C27.8825,8.8133 28.1515,8.6343 28.4175,8.4693 C28.4355,8.5343 28.4555,8.6143 28.4735,8.6843 C28.5095,8.8183 28.5465,8.9533 28.5825,9.1013 C28.6145,9.2303 28.6455,9.3713 28.6765,9.5093 C28.7015,9.6233 28.7275,9.7383 28.7525,9.8583 C28.7845,10.0173 28.8155,10.1823 28.8445,10.3503 C28.8645,10.4613 28.8835,10.5733 28.9015,10.6873 C28.9305,10.8713 28.9575,11.0583 28.9805,11.2483 C28.9925,11.3493 29.0015,11.4513 29.0115,11.5533 C29.0325,11.7613 29.0535,11.9703 29.0655,12.1823 C29.0685,12.2303 29.0665,12.2773 29.0685,12.3243 C29.0885,12.7713 29.0795,13.2203 29.0415,13.6633 C29.0335,13.7573 29.0305,13.8533 29.0195,13.9463 C28.9995,14.1143 28.9645,14.2773 28.9335,14.4423 C28.8305,14.9853 28.6815,15.5083 28.4345,15.9743 C26.9165,18.8363 26.5655,21.8853 27.4465,24.5603 C28.0335,26.3423 28.9295,28.3243 30.1105,30.4543 M29.0005,0.9963 C28.7165,0.9963 28.4465,1.1163 28.2565,1.3273 C28.1695,1.4243 26.2255,3.6733 26.0585,7.6673 C24.1475,9.1133 22.6385,10.8653 21.5085,12.4533 C20.3875,10.8773 18.8645,9.1213 16.9425,7.6693 C16.7765,3.6743 14.8305,1.4243 14.7435,1.3273 C14.5535,1.1163 14.2835,0.9963 14.0005,0.9963 C0.3935,0.9963 0.0005,6.3823 0.0005,6.9963 C0.0005,7.5483 0.4485,7.9963 1.0005,7.9963 C1.3835,7.9963 10.3905,8.0863 12.1755,15.2213 C12.1775,15.2303 12.1835,15.2373 12.1865,15.2463 C12.3255,15.8263 12.5215,16.3893 12.7985,16.9113 C14.0595,19.2873 14.3625,21.7813 13.6535,23.9353 C13.1035,25.6063 12.2535,27.4823 11.1055,29.5493 C11.0165,29.7273 8.9445,33.9923 11.0255,40.2213 C11.0555,40.3503 14.0005,53.1883 14.0005,59.9963 C14.0005,60.5493 14.4475,60.9963 15.0005,60.9963 L21.0005,60.9963 L28.0005,60.9963 C28.5525,60.9963 29.0005,60.5493 29.0005,59.9963 C29.0005,53.1913 31.9445,40.3503 31.9485,40.3123 C34.0555,33.9923 31.9845,29.7273 31.8945,29.5493 C31.8885,29.5363 31.8815,29.5233 31.8745,29.5113 C30.7465,27.4803 29.8965,25.6043 29.3465,23.9353 C28.6375,21.7813 28.9415,19.2873 30.2015,16.9113 C30.4775,16.3913 30.6725,15.8323 30.8115,15.2543 C30.8155,15.2423 30.8235,15.2323 30.8265,15.2203 C32.6105,8.0863 41.6165,7.9963 41.9995,7.9963 C42.5515,7.9963 43.0005,7.5483 43.0005,6.9963 C43.0005,6.3823 42.6075,0.9963 29.0005,0.9963"/></g></g></g><text x="0" y="75" fill="#000000" font-size="5px" font-weight="bold" font-family="'Helvetica Neue', Helvetica, Arial-Unicode, Arial, Sans-serif"></text><text x="0" y="80" fill="#000000" font-size="5px" font-weight="bold" font-family="'Helvetica Neue', Helvetica, Arial-Unicode, Arial, Sans-serif"></text></svg>