<svg xmlns="http://www.w3.org/2000/svg" class="icon" viewBox="0 0 1024 1280" version="1.1" x="0px" y="0px"><path fill="#000000" d="M531.23 856.93H236.48a9 9 0 0 1-9-9v-470-0.88c0.8-8.19 6-49.07 30-49.07 15.51 0 22.76 20.12 25.14 26.73q0.29 0.81 0.58 1.66c3.7-69.34 14-87.37 21.81-94.77a19.18 19.18 0 0 1 15.43-5.66c9.16 0.88 16.61 7.45 22.53 20 3.35-30.2 8.91-48.59 17.49-57.87 5.5-5.94 11.4-7.19 15.39-7.19 4.24 0 10.53 1.33 16.47 7.64 8.95 9.51 15.28 28.72 19.35 58.71q1.27 9.34 2.25 20.07c4.52-16.1 12.33-35.91 28.13-37a20.52 20.52 0 0 1 15.45 5.42c16.7 15 19.08 58.86 21.85 135.09 2 53.78 4.17 114.73 14.91 163.66 11.1 50.57 44.41 272.81 45.82 282.25a9 9 0 0 1-8.9 10.33z m-285.75-18h275.3c-6.86-45.44-34.42-226.88-44-270.72-11.09-50.52-13.34-112.33-15.32-166.87-1.12-30.8-2.18-59.89-4.74-82.23-3.22-27.72-7.86-37.11-11.2-40.11a2.53 2.53 0 0 0-2.15-0.85c-0.15 0-14.87 3.6-23.58 95.29-1.22 12.89-2.16 25.81-2.88 37.88-0.67 36-2.3 63-2.32 63.35a9 9 0 0 1-18-0.62c0-0.38 0.25-28.36 2.31-63.41 0.28-14.9 0.38-31.35 0.14-48.11-1.46-101.46-14.33-125.94-19.8-131.75-1.86-2-2.95-2-3.36-2-0.57 0-1.3 0.47-2.17 1.41-4.71 5.09-15.18 26-16.08 110.77q1.46 13.29 2.5 28.63c3.46 51.33 2 102.85 2 103.37a9 9 0 0 1-8.77 8.74h-0.23a9 9 0 0 1-9-8.3c0-0.54-4.24-54.82-4.6-112.47q-0.06-9.89 0-19.15c-7.36-65.84-20.26-67.92-20.87-68-0.27 0-0.72 0.23-1.29 0.78-4.37 4.16-14.79 22.68-17.13 104.51-1.32 46.3 0.72 90 0.74 90.39a9 9 0 0 1-18 1c0-0.3-1.86-30.9-6.62-62.11-8.39-55-18.08-61.8-19.13-62.39-3.87 0.43-10.11 15.44-11.87 32.4z"/><path fill="#000000" d="M531.23 820.33a9 9 0 0 1-6.85-14.83L838 436.45q0.21-0.25 0.43-0.48c11.57-11.81 29.76-35.12 29.32-47.43a4.87 4.87 0 0 0-1.53-3.84c-0.92-0.28-14.06-3-68.17 42.25-20.63 17.26-39.91 35.41-50 45.08-4.56 4.5-7.29 7.1-7.39 7.19a9 9 0 0 1-12.55-12.9c0.09-0.09 2.79-2.77 7.38-7.19 12.06-11.9 37.23-37.37 60.14-64.66 18.2-21.67 31.38-40.16 39.19-55 7.68-14.56 10-25.68 6.2-29.74-0.33-0.35-1.07-1.17-3.74-1.13-7.17 0.11-30.55 6.85-92.74 66.87-10.68 10.31-20.9 20.65-30 30.05-20.39 22.71-35.58 38.39-35.81 38.63A9 9 0 0 1 665.61 432c0.21-0.24 15-17 35.84-38.66 11.34-12.63 24.29-27.45 37.15-43 61.47-74.24 70.07-102.76 69.72-113.15-0.11-3.42-1.22-4.42-1.64-4.8s-1-0.92-3.38-0.65c-6.93 0.79-27.63 9.46-78.52 68.16-7.62 13.17-18.08 28.5-31.46 46.22-28.95 38.33-61.51 73.91-61.84 74.27a9 9 0 0 1-14-11.23c0.33-0.47 33.07-47.33 71.23-94.23q11.06-13.6 21.3-25.45c16.89-29.54 11.67-35.52 11.59-35.6a6.91 6.91 0 0 0-5.46-2.29c-16.75 0.31-49.91 36.25-85 74.29-7 7.64-14.33 15.54-21.87 23.58a9 9 0 0 1-13.13-12.31c7.49-8 14.75-15.87 21.78-23.48 42.65-46.22 73.46-79.62 97.9-80.08a25 25 0 0 1 18.56 7.6c3.84 3.86 5.87 8.85 6 15.09q4-4.06 7.8-7.72c23-22.15 39.81-33.17 53.06-34.69 8.62-1 14.27 2.26 17.48 5.17s7.27 8.42 7.58 17.56c0.45 13.44-7.19 32.3-23.35 57.65q-5.26 8.26-11.74 17.43c19.43-14 34.45-20.83 45.84-21h0.46c8.5 0 13.77 3.7 16.7 6.83 14 15 6.23 41.73-24.62 83.25 23.89-15.12 39.11-17.88 48.48-9.58a22.88 22.88 0 0 1 7.67 16.77c0.82 23.52-29.68 55.74-34.23 60.42L538.09 817.16a9 9 0 0 1-6.86 3.17z"/><path fill="#000000" d="M492.55 556.64a9 9 0 0 1-8.93-7.9L472.35 457a9 9 0 0 1 1.79-6.58l7.32-9.54a9 9 0 0 1 2.09-2c21.36-14.46 43.62-32.89 68.06-56.34a9 9 0 0 1 12.46 13C539.35 419.25 516.7 438 494.86 453l-4.19 5.47 9.58 78.09a544.7 544.7 0 0 0 59.51-18.67c40.23-15.55 62.61-32.22 61.4-45.72-0.61-6.85-3.2-8.92-4.05-9.61-6.53-5.23-22.51-3.14-36.61-1.3s-27.69 3.62-38.42 0a9 9 0 1 1 5.74-17.06c6.78 2.28 18.76 0.72 30.35-0.79 18.53-2.42 37.7-4.92 50.21 5.11 6.25 5 9.86 12.43 10.72 22 2.09 23.41-21.79 44.41-73 64.18a562.08 562.08 0 0 1-71.58 21.73 9 9 0 0 1-1.97 0.21z"/><text x="0" y="1039" fill="#000000" font-size="5px" font-weight="bold" font-family="'Helvetica Neue', Helvetica, Arial-Unicode, Arial, Sans-serif"></text><text x="0" y="1044" fill="#000000" font-size="5px" font-weight="bold" font-family="'Helvetica Neue', Helvetica, Arial-Unicode, Arial, Sans-serif"></text></svg>