<svg xmlns="http://www.w3.org/2000/svg" xmlns:xlink="http://www.w3.org/1999/xlink" version="1.1" x="0px" y="0px" viewBox="0 0 100 125" enable-background="new 0 0 100 100" xml:space="preserve"><path d="M44.075,56.076l9.435,0.715c0.014,0,0.025,0,0.037,0l0,0c0.002,0,0.002,0,0.002,0l0,0l0,0c0.012,0,0.025,0,0.037,0  l9.436-0.715c0.008-0.002,0.014-0.006,0.021-0.006c0.02-0.002,0.037-0.002,0.057-0.008l8.793-2.105  c0.016-0.004,0.029-0.014,0.043-0.02c0.016-0.006,0.029-0.004,0.043-0.01l7.551-3.343c0.027-0.012,0.045-0.032,0.066-0.047  c0.01-0.007,0.023-0.004,0.033-0.011l5.793-4.359c0.016-0.013,0.025-0.031,0.041-0.046c0.012-0.012,0.027-0.017,0.039-0.03  l0.229-0.27c0.004-0.006,0.006-0.013,0.01-0.019s0.012-0.007,0.016-0.013l3.668-5.111c0.002-0.004,0.002-0.008,0.004-0.012  c0.033-0.048,0.059-0.102,0.074-0.161c0-0.004,0.002-0.007,0.002-0.01l1.25-5.486c0.004-0.013,0-0.025,0.002-0.038  c0.002-0.015,0.01-0.026,0.01-0.041l0.033-0.516c0.002-0.025-0.008-0.048-0.01-0.073c-0.002-0.023,0.004-0.046-0.002-0.07  l-1.252-5.49c0-0.004-0.004-0.007-0.004-0.01c-0.002-0.004,0-0.008-0.002-0.012l-0.092-0.332c-0.006-0.027-0.023-0.047-0.035-0.072  c-0.012-0.024-0.016-0.051-0.031-0.074l-1.352-2.006c-0.002-0.002-0.004-0.003-0.004-0.005c-0.002-0.002-0.002-0.005-0.004-0.008  l-0.648-0.902c-0.002-0.001-0.002-0.001-0.002-0.002l-2.871-4.005l0,0c0,0,0-0.001-0.002-0.001l-0.582-0.809  c-0.01-0.015-0.025-0.022-0.037-0.035c-0.012-0.014-0.018-0.031-0.033-0.044l-1.094-0.99c-0.006-0.006-0.014-0.007-0.02-0.012  s-0.008-0.012-0.014-0.017l-5.295-3.986c-0.006-0.004-0.012-0.004-0.018-0.008c-0.004-0.003-0.006-0.009-0.012-0.012l-0.994-0.646  c-0.012-0.008-0.025-0.008-0.037-0.015s-0.02-0.018-0.033-0.023l-6.611-2.928c-0.002-0.001-0.006-0.001-0.008-0.002  c-0.004-0.001-0.006-0.005-0.01-0.006l-0.766-0.305c-0.012-0.005-0.023-0.003-0.035-0.006c-0.012-0.004-0.021-0.013-0.033-0.016  l-3.822-0.914l-1.061-1.478c-0.008-0.009-0.018-0.014-0.023-0.022c-0.008-0.008-0.01-0.019-0.018-0.026l-0.438-0.471  c-0.01-0.012-0.025-0.016-0.037-0.026c-0.01-0.01-0.016-0.023-0.027-0.032l-1.758-1.324c-0.018-0.012-0.035-0.015-0.053-0.024  s-0.029-0.025-0.047-0.033l-2.621-1.16c-0.014-0.006-0.029-0.005-0.043-0.01c-0.016-0.005-0.027-0.016-0.043-0.02l-2.51-0.6  c-0.012-0.003-0.025,0.001-0.039-0.002c-0.014-0.002-0.025-0.01-0.039-0.011l-2.693-0.205c-0.014-0.001-0.025,0.005-0.039,0.004  c-0.012,0-0.023-0.005-0.037-0.004l-2.696,0.205C50.8,5.342,50.789,5.35,50.775,5.352c-0.014,0.003-0.025-0.001-0.039,0.002  l-2.51,0.6c-0.016,0.004-0.025,0.014-0.041,0.02c-0.015,0.005-0.03,0.003-0.045,0.01l-2.619,1.16  c-0.018,0.008-0.029,0.023-0.047,0.033c-0.017,0.01-0.035,0.013-0.051,0.024l-1.76,1.324c-0.012,0.009-0.018,0.022-0.029,0.032  c-0.012,0.011-0.027,0.016-0.037,0.027l-0.436,0.471c-0.008,0.008-0.01,0.019-0.017,0.026c-0.007,0.009-0.017,0.013-0.022,0.021  l-1.061,1.479l-3.824,0.913c-0.012,0.003-0.021,0.012-0.032,0.016c-0.012,0.003-0.024,0.001-0.036,0.006l-0.768,0.305  c-0.003,0.001-0.005,0.004-0.009,0.006c-0.003,0.001-0.006,0.001-0.009,0.002l-6.609,2.928c-0.013,0.006-0.021,0.018-0.034,0.023  c-0.012,0.007-0.024,0.008-0.036,0.015l-0.996,0.646c-0.005,0.003-0.007,0.008-0.012,0.012c-0.005,0.003-0.012,0.004-0.017,0.008  l-5.295,3.986c-0.007,0.005-0.01,0.013-0.016,0.018s-0.014,0.007-0.02,0.012l-1.092,0.99c-0.013,0.012-0.018,0.027-0.029,0.039  c-0.01,0.011-0.024,0.017-0.034,0.028c-0.003,0.004-0.003,0.009-0.006,0.013c-0.002,0.003-0.006,0.005-0.009,0.008l-0.574,0.799  c0,0,0,0.001,0,0.001l0,0l-2.526,3.523c0,0.001,0,0.001,0,0.001l-0.996,1.385c-0.001,0.002-0.001,0.004-0.003,0.007  c-0.001,0.002-0.004,0.003-0.006,0.006l-1.348,2.006c-0.016,0.024-0.021,0.052-0.032,0.077c-0.01,0.022-0.027,0.041-0.034,0.066  l-0.094,0.332c-0.001,0.004,0,0.008-0.001,0.013c-0.001,0.004-0.004,0.007-0.005,0.012l-1.254,5.49c-0.005,0.023,0,0.047-0.002,0.07  c-0.002,0.025-0.012,0.049-0.01,0.075l0.035,0.516c0.001,0.015,0.009,0.026,0.011,0.041c0.002,0.012-0.002,0.023,0.001,0.036  l0.257,1.125v0.001l0.152,0.67c-0.007,0.007-0.017,0.01-0.023,0.017l-0.84,0.867c-0.004,0.004-0.005,0.01-0.009,0.015  c-0.004,0.004-0.01,0.005-0.013,0.01l-1.715,2.023c-0.006,0.008-0.008,0.017-0.013,0.024c-0.006,0.008-0.015,0.012-0.02,0.02  l-0.211,0.312c-0.006,0.01-0.007,0.021-0.013,0.03c-0.006,0.011-0.016,0.017-0.021,0.027L13.701,40.5  c-0.011,0.022-0.011,0.046-0.018,0.068c-0.008,0.023-0.022,0.045-0.027,0.07l-0.186,1.107c-0.001,0.005,0.001,0.01,0,0.015  s-0.004,0.009-0.004,0.014l-0.398,3.633l-0.416,3.803c-0.001,0.007,0.002,0.014,0.002,0.021c0,0.006-0.004,0.011-0.004,0.017  l-0.141,4.054l-0.326,9.502l-1.531,14.422l0,0v0.002c-0.001,0.01,0.003,0.018,0.002,0.027c-0.003,0.055,0,0.111,0.016,0.166  c0.012,0.041,0.036,0.076,0.058,0.113c0.011,0.02,0.016,0.041,0.03,0.059l0.75,0.938c0.006,0.008,0.015,0.01,0.021,0.016  c0.032,0.037,0.071,0.064,0.114,0.09c0.02,0.012,0.036,0.029,0.057,0.037c0.005,0.004,0.009,0.008,0.014,0.01l1.566,0.625  c0.023,0.01,0.047,0.008,0.071,0.014c0.019,0.004,0.034,0.016,0.054,0.018l2.263,0.277c0,0,0,0,0.001,0l2.188,0.273l1.382,0.553  l0.689,0.836c0.003,0.004,0.009,0.006,0.012,0.01s0.004,0.008,0.007,0.012l0.838,0.902c0.002,0.002,0.005,0.004,0.008,0.006  c0.028,0.029,0.065,0.049,0.102,0.072c0.023,0.014,0.043,0.033,0.067,0.043c0.001,0.002,0.002,0.002,0.004,0.004l1.559,0.623  c0.02,0.008,0.039,0.006,0.059,0.012c0.02,0.004,0.035,0.016,0.056,0.02l2.188,0.314c0.024,0.002,0.048,0.004,0.072,0.004  c0.067,0,0.13-0.016,0.189-0.039c0.005-0.002,0.01-0.002,0.014-0.004l0.189-0.084c-0.003,0.012-0.001,0.025-0.003,0.037  c-0.007,0.035-0.01,0.068-0.009,0.104c0,0.031,0.003,0.061,0.009,0.092c0.007,0.029,0.017,0.059,0.029,0.088  c0.013,0.033,0.029,0.062,0.048,0.09c0.009,0.014,0.012,0.029,0.022,0.041l1.535,1.836c0.012,0.016,0.03,0.021,0.043,0.033  c0.019,0.018,0.03,0.039,0.052,0.055l2.1,1.488c0.011,0.008,0.023,0.006,0.035,0.012c0.022,0.014,0.039,0.033,0.064,0.043  l2.543,1.047c0.001,0,0.003,0,0.004,0c0.002,0.002,0.003,0.002,0.005,0.004l2.528,0.984l1.997,1.414l1.44,1.818c0,0,0,0,0.001,0.002  l1.466,1.877c0.012,0.014,0.029,0.021,0.043,0.033c0.021,0.023,0.037,0.049,0.062,0.066l2.109,1.494  c0.01,0.008,0.023,0.006,0.035,0.012c0.025,0.016,0.045,0.037,0.074,0.047l2.598,0.996c0.059,0.023,0.119,0.033,0.18,0.033l0,0l0,0  c0.002,0,0.002,0,0.004,0c0.105-0.002,0.203-0.039,0.287-0.1c0.006-0.004,0.012-0.002,0.017-0.006l0.387-0.303  c0.011-0.008,0.015-0.02,0.024-0.029c0.025-0.023,0.046-0.049,0.066-0.076c0.019-0.027,0.037-0.051,0.049-0.08  c0.014-0.027,0.021-0.057,0.029-0.086c0.008-0.035,0.016-0.068,0.016-0.104c0.002-0.012,0.008-0.023,0.007-0.035l-0.517-15.41  l-0.008-13.66c0-0.002-0.002-0.006-0.002-0.008c0-0.004,0.001-0.006,0.001-0.01l-0.281-7.967c0-0.002-0.001-0.004-0.001-0.006  s0-0.004,0-0.006l-0.074-1.238c0-0.01-0.005-0.016-0.006-0.025c-0.001-0.008,0.002-0.016,0.001-0.023l-0.078-0.488  c-0.001-0.004-0.003-0.006-0.003-0.01c-0.002-0.004,0-0.008,0-0.012l-0.098-0.477l-0.107-0.695c0.014,0.004,0.027,0.004,0.041,0.006  C44.062,56.07,44.068,56.074,44.075,56.076z M41.941,94.979l-2-1.416l-1.423-1.822c-0.001,0-0.001,0-0.001-0.002  c0,0,0,0-0.001-0.002l-1.484-1.875c-0.015-0.02-0.037-0.029-0.054-0.045c-0.017-0.018-0.028-0.037-0.049-0.053l-2.105-1.49  c-0.018-0.012-0.038-0.014-0.056-0.023c-0.019-0.01-0.032-0.025-0.052-0.033l-2.586-1.008c0,0-0.001,0-0.001,0l-2.479-1.021  l-2.003-1.42l-1.322-1.58l3.431-11.674l3.531-10.318c0.001-0.004,0-0.01,0.002-0.016c0.001-0.002,0.004-0.004,0.005-0.006  l1.803-6.18c0.001-0.004,0-0.006,0-0.01c0.001-0.002,0.003-0.004,0.004-0.006L35.353,54c0.003-0.01,0-0.02,0.002-0.031  c0.002-0.01,0.008-0.02,0.01-0.031l0.053-0.416c0-0.002-0.001-0.006-0.001-0.01c0.001-0.002,0.003-0.006,0.003-0.008l0.014-0.156  c0-0.002,0-0.002,0-0.002l0-0.002l0.021-0.26l0.338-2.865c0-0.005-0.001-0.01-0.001-0.015c0.001-0.005,0.004-0.009,0.004-0.014  l0.083-1.351l0.189-2.071l0.514-1.934l0.605-1.911l0.721-1.826v-0.001c0-0.001,0.001-0.001,0.001-0.002l0.692-1.783l0.717-1.699  c0-0.001,0-0.002,0-0.002c0-0.001,0-0.001,0-0.001l1.924-4.639c0-0.001,0-0.001,0.001-0.002s0.001-0.001,0.001-0.002l1.738-4.305  c0.004-0.007,0.002-0.015,0.004-0.021c0.006-0.014,0.006-0.029,0.009-0.044c0.06-0.238-0.054-0.491-0.289-0.586  c-0.073-0.029-0.148-0.035-0.222-0.029c-0.018,0.001-0.035,0.009-0.053,0.011c-0.043,0.008-0.084,0.016-0.123,0.034  c-0.009,0.004-0.018,0.003-0.025,0.007l-4.916,2.463c0,0-0.001,0.001-0.002,0.002c0,0-0.001,0-0.001,0l-5.348,2.73  c-0.006,0.003-0.01,0.009-0.016,0.013c-0.005,0.003-0.012,0.003-0.017,0.006l-0.866,0.527c-0.011,0.005-0.023,0.005-0.034,0.012  c-0.003,0.002-0.004,0.005-0.007,0.006c-0.003,0.002-0.006,0.002-0.009,0.004l-0.163,0.106l-0.667,0.404  c-0.007,0.004-0.01,0.011-0.017,0.016c-0.006,0.004-0.015,0.005-0.021,0.01l-1.664,1.23c-0.007,0.006-0.011,0.014-0.018,0.02  c-0.006,0.005-0.014,0.006-0.02,0.012l-1.525,1.377c-0.004,0.004-0.006,0.01-0.01,0.014c-0.005,0.004-0.012,0.006-0.016,0.011  l-1.404,1.463c-0.006,0.006-0.007,0.014-0.013,0.021c-0.004,0.005-0.01,0.007-0.015,0.012l-1.256,1.549  c-0.001,0.002-0.002,0.005-0.003,0.007c-0.002,0.003-0.006,0.004-0.008,0.007l-1.158,1.539c-0.008,0.011-0.009,0.023-0.017,0.034  c-0.007,0.011-0.018,0.018-0.024,0.029l-0.576,1.066c-0.002,0.004-0.001,0.009-0.004,0.013c-0.002,0.004-0.005,0.006-0.007,0.01  l-1.1,2.307c-0.006,0.013-0.005,0.027-0.01,0.04c-0.008,0.013-0.021,0.022-0.027,0.036c-0.004,0.009-0.003,0.019-0.007,0.028  c-0.004,0.01-0.012,0.017-0.016,0.026l-0.045,0.129c0,0.001,0,0.001,0,0.002c0,0.001-0.001,0.001-0.001,0.002l-0.08,0.236  c-0.003,0.009-0.001,0.017-0.003,0.025c-0.003,0.009-0.009,0.016-0.011,0.024l-0.088,0.389c-0.005,0.021,0,0.041-0.001,0.062  s-0.011,0.04-0.011,0.062l0.033,1.131c0,0.005,0.003,0.009,0.003,0.013c0,0.005-0.002,0.009-0.001,0.014l0.053,0.639l0,0  l0.553,6.839c0,0.006,0.004,0.01,0.005,0.018c0,0.006-0.002,0.01-0.001,0.016l1.993,13.342l1.189,14.131l-0.062,0.027l-1.988-0.285  l-1.396-0.559l-0.746-0.803l-0.766-0.93c-0.006-0.006-0.014-0.01-0.02-0.016c-0.021-0.023-0.048-0.041-0.074-0.061  c-0.028-0.02-0.055-0.041-0.086-0.055c-0.008-0.004-0.013-0.012-0.021-0.014l-1.562-0.625c-0.021-0.01-0.042-0.006-0.062-0.012  c-0.021-0.006-0.039-0.018-0.062-0.021l-2.25-0.281c0,0,0,0-0.001,0l0,0l-2.199-0.27l-1.385-0.553l-0.54-0.674l1.512-14.236  c0.001-0.006-0.002-0.012-0.002-0.018c0.001-0.006,0.004-0.012,0.004-0.018l0.326-9.52l0.14-4.033l0.414-3.787l0.397-3.618  l0.171-1.021l0.125-0.253l0.175-0.26l1.686-1.989l0.802-0.828l0.194-0.149c0.001-0.001,0.001-0.002,0.002-0.003l1.347-1.039  c0,0,0-0.001,0-0.001c0,0,0.001,0,0.001,0l1.676-1.302l1.81-1.223l1.928-1.159l1.717-0.833c0.001-0.001,0.002-0.002,0.003-0.002  c0-0.001,0.001-0.001,0.002-0.001l0.423-0.212l2.125-0.87l9.612-3.195c0.001,0,0.001,0,0.001-0.001h0.002l2.098-0.711l0.002-0.001  l0.66-0.227c0.016-0.005,0.025-0.017,0.039-0.023c0.012-0.005,0.023-0.003,0.035-0.009l1.199-0.645  c0.243-0.131,0.334-0.434,0.203-0.677s-0.434-0.333-0.677-0.204l-1.165,0.626l-0.262,0.09l-0.794-1.153l-0.458-1.994l0.46-1.967  l0.292-0.407l-0.1,0.48c-0.056,0.271,0.118,0.535,0.389,0.591c0.033,0.008,0.068,0.011,0.102,0.011c0.232,0,0.44-0.162,0.489-0.398  l0.152-0.737l0.148,0.989c0.005,0.029,0.019,0.054,0.028,0.08c0.006,0.019,0.004,0.036,0.012,0.054l1.238,2.703  c0.001,0.002,0.004,0.003,0.004,0.005c0.029,0.062,0.07,0.12,0.127,0.168l1.971,1.678c0.042,0.036,0.09,0.062,0.139,0.081  c0.005,0.002,0.008,0.006,0.014,0.008l2.568,0.941c0.055,0.02,0.109,0.028,0.164,0.029c0.002,0,0.004,0.001,0.007,0.001h0.001l0,0  l0,0c0.014,0,0.029-0.001,0.043-0.002l2.988-0.26c0.006-0.001,0.012-0.004,0.018-0.005c0.016-0.002,0.033-0.002,0.05-0.006  l6.419-1.461c0.002,0,0.002,0,0.002,0c0.002-0.001,0.004-0.001,0.004-0.001l2.99-0.717c0.018-0.004,0.029-0.015,0.045-0.021  c0.014-0.005,0.027-0.003,0.041-0.009l2.568-1.137c0.025-0.012,0.043-0.032,0.066-0.047c0.01-0.007,0.023-0.003,0.033-0.011  l1.971-1.482c0.027-0.021,0.045-0.05,0.066-0.075c0.012-0.014,0.027-0.019,0.039-0.033l1.238-1.727  c0.002-0.003,0.002-0.007,0.004-0.01c0.035-0.05,0.061-0.105,0.076-0.169c0-0.001,0-0.002,0-0.003l0.068-0.301l0.238,1.286  c0.045,0.241,0.254,0.409,0.49,0.409c0.031,0,0.061-0.003,0.092-0.008c0.271-0.051,0.451-0.312,0.4-0.583l-0.045-0.247l0.238,0.333  l0.459,2.021l-0.461,2.018l-1.391,1.937L63.84,28.33l-2.998,1.33l-3.512,0.839l-3.783,0.237l-3.788-0.316l-3.281-0.707l0.045-0.193  c0.062-0.269-0.104-0.538-0.373-0.601c-0.266-0.07-0.537,0.103-0.601,0.372l-0.139,0.59c-0.003,0.01,0.001,0.02-0.001,0.029  c-0.002,0.007-0.008,0.012-0.009,0.019c-0.001,0.001,0,0.002,0,0.003c-0.001,0.001-0.001,0.003-0.002,0.004l-1.244,5.285v0.001  l-0.001,0.001l-0.93,4.027c0,0.001,0,0.001,0,0.002s0,0.001,0,0.002l-0.414,1.863c-0.002,0.004,0,0.008,0,0.012  c-0.002,0.004-0.004,0.007-0.005,0.011l-0.348,1.992c0,0.001,0.001,0.002,0,0.002c0,0.001-0.001,0.001-0.001,0.002l-0.346,2.09  c0,0.008,0.002,0.014,0.002,0.021c-0.002,0.008-0.006,0.015-0.007,0.022l-0.168,2.184c-0.001,0.005,0.002,0.01,0.002,0.015  c-0.001,0.006-0.003,0.01-0.003,0.016L41.9,49.731c0,0.017,0.007,0.03,0.008,0.047c0.002,0.016-0.004,0.03-0.001,0.046l0.398,2.323  c0.001,0.002,0.003,0.006,0.003,0.008c0.001,0.004,0,0.008,0,0.01l0.32,1.508l0.283,1.811l0,0v0.002v0.002l0.225,1.443  c0,0.004,0.002,0.008,0.004,0.012c0,0.004-0.002,0.008,0,0.012l0.096,0.48l0.072,0.445l0.072,1.213l0.281,7.941l0.008,13.658  c0,0.004,0.002,0.006,0.002,0.01c0,0.002-0.002,0.004-0.002,0.008l0.508,15.127L41.941,94.979z M22.697,54.652l-0.551-6.823l0,0  c0-0.001,0-0.001,0-0.001l-0.052-0.626l-0.021-0.735l0.718,0.539h0l4.674,3.521c0.01,0.007,0.022,0.004,0.032,0.011  c0.023,0.015,0.041,0.035,0.066,0.047l6.833,3.027l-0.021,0.168l-0.244,0.949l0,0l-1.793,6.148l-3.529,10.312  c-0.001,0.004,0,0.01-0.001,0.014c-0.001,0.002-0.004,0.006-0.005,0.008l-2.986,10.164L24.692,68.02c0-0.006-0.004-0.01-0.004-0.016  s0.002-0.012,0.001-0.018L22.697,54.652z M23.357,43.189l0.553-1.024l1.136-1.51l0,0l1.225-1.511l1.389-1.447l1.486-1.341  l1.63-1.206l0.649-0.394c0.003-0.002,0.004-0.005,0.007-0.007c0.002-0.001,0.004-0.001,0.006-0.002l0.159-0.104  c0.007-0.004,0.015-0.002,0.021-0.006l0.861-0.524l5.333-2.723c0,0,0,0,0,0l3.743-1.876l-1.242,3.077c0,0,0,0.001,0,0.002  l-1.92,4.629v0.001l-0.717,1.701c-0.001,0.003,0,0.005-0.001,0.008c-0.001,0.002-0.003,0.004-0.004,0.006l-0.697,1.795  c0,0,0,0.001,0,0.001l-0.727,1.842c-0.002,0.006-0.001,0.011-0.003,0.017s-0.007,0.01-0.009,0.016l-0.613,1.936  c-0.001,0.004,0,0.008-0.001,0.013c-0.001,0.004-0.004,0.007-0.005,0.011l-0.527,1.986c-0.004,0.015,0,0.028-0.002,0.042  s-0.011,0.025-0.012,0.04l-0.193,2.113c0,0.003,0.001,0.006,0.001,0.009c0,0.002-0.002,0.004-0.002,0.007l-0.083,1.35l-0.29,2.454  l-6.486-2.875l-4.63-3.487l0,0c0,0-0.001-0.001-0.001-0.001l-1.07-0.803l-0.012-0.014L23.357,43.189z M18.533,29.014l0.068-0.239  l1.304-1.94l0,0l0.987-1.372c0,0,0-0.001,0-0.001l0,0l2.526-3.523c0-0.001,0-0.001,0-0.001l0.549-0.764l1.036-0.94l5.271-3.968  l0.939-0.609l6.562-2.907l0.731-0.29l3.034-0.725l-0.066,0.288v0.001l-0.139,0.611l0,0l-0.023,0.1v0.001l-0.139,0.607  c-0.001,0.007,0.002,0.013,0,0.02s-0.006,0.012-0.007,0.019l-0.333,2.244c-0.015,0.022-0.021,0.052-0.032,0.077  c-0.015,0.033-0.032,0.064-0.04,0.1c0,0.003-0.004,0.006-0.004,0.01l-0.389,2.133l-0.036,0.027  c-0.022,0.018-0.036,0.041-0.056,0.062c-0.017,0.018-0.039,0.029-0.053,0.05l-1.486,2.071c-0.002,0.002-0.002,0.005-0.004,0.007l0,0  c-0.003,0.003-0.003,0.008-0.006,0.011c-0.033,0.05-0.061,0.104-0.075,0.166l-0.001,0.004l0,0l-0.509,2.172  c-0.001,0.005,0,0.009,0,0.014c-0.007,0.032-0.003,0.066-0.003,0.101c0,0.033-0.004,0.066,0.002,0.099c0.001,0.005,0,0.009,0,0.014  l0.505,2.199c0.015,0.062,0.041,0.116,0.074,0.166c0.001,0.001,0.001,0.003,0.002,0.005l0.689,1l-1.471,0.499l-9.626,3.2  c-0.005,0.002-0.009,0.007-0.015,0.009c-0.005,0.002-0.011,0.001-0.017,0.003l-2.156,0.883c-0.006,0.003-0.01,0.008-0.016,0.011  c-0.006,0.003-0.013,0.002-0.019,0.005l-0.435,0.218c0,0,0,0-0.001,0l-1.734,0.842c-0.007,0.004-0.012,0.011-0.019,0.015  c-0.006,0.003-0.014,0.003-0.021,0.007l-1.957,1.176c-0.004,0.003-0.006,0.007-0.01,0.01c-0.004,0.002-0.009,0.002-0.012,0.005  l-1.838,1.242c-0.005,0.003-0.007,0.009-0.012,0.012c-0.004,0.004-0.01,0.004-0.015,0.008l-1.689,1.312c0,0,0,0,0,0l-0.728,0.562  l-0.048-0.211l0-0.001l-0.249-1.087l-0.028-0.406L18.533,29.014z M43.917,9.712l0.386-0.417l1.676-1.262l2.525-1.118l2.424-0.579  l2.622-0.199l2.617,0.199l2.426,0.58l2.525,1.117l1.676,1.263l0.387,0.416l1.107,1.542l0.266,0.585l0.391,1.705l0.344,2.33  l0.002,0.001l0.123,0.854l0.033,1.023l-0.385,1.693l-1.135,1.581l-1.865,1.403l-2.473,1.094l-2.947,0.707l-0.002,0.001l-6.377,1.451  l-2.844,0.247l-2.381-0.872l-1.818-1.549l-1.162-2.537l-0.408-2.715l0.033-1.531l0.125-0.838l0.348-2.345l0.133-0.584v-0.001  l0.023-0.102v-0.001l0.001-0.001l0.139-0.611v-0.001l0.091-0.402l0.273-0.592L43.917,9.712z M68.588,12.458l0.734,0.292l0,0  l6.559,2.904l0.941,0.612l5.264,3.964l1.041,0.941l0.551,0.765c0,0,0,0,0,0.001l2.871,4.004c0,0.001,0,0.002,0.002,0.003  l0.648,0.902c0,0,0,0,0,0.001l1.297,1.925l0.068,0.243l1.232,5.407l-0.027,0.405l-1.217,5.348l-3.602,5.018l-0.176,0.208  l-5.703,4.292l-7.455,3.302l-8.709,2.084l-9.359,0.709l-9.358-0.709l-0.344-0.082l-0.232-1.492  c-0.002-0.006-0.004-0.008-0.006-0.014c0-0.004,0.002-0.008,0-0.014l-0.32-1.516L42.9,49.701l0.037-2.188l0.164-2.146l0.342-2.062  c0-0.001,0-0.001,0-0.001l0.346-1.979l0.412-1.854l0,0l0.928-4.023l0,0l1.121-4.76l3.326,0.717c0.018,0.003,0.033,0.003,0.051,0.005  c0.005,0.001,0.008,0.004,0.013,0.004l3.861,0.322c0.014,0.001,0.027,0.002,0.041,0.002l0,0c0.002,0,0.002,0,0.002,0l0,0l0,0  c0.01,0,0.02,0,0.031-0.001l3.861-0.242c0.006,0,0.012-0.004,0.018-0.005c0.021-0.002,0.045-0.002,0.066-0.008l3.598-0.859  c0.016-0.004,0.029-0.015,0.043-0.021c0.016-0.005,0.029-0.003,0.043-0.009l3.092-1.371c0.027-0.012,0.045-0.032,0.066-0.047  c0.01-0.007,0.023-0.004,0.031-0.011l2.104-1.582l8.619,5.098c0.08,0.047,0.168,0.069,0.254,0.069c0.082,0,0.162-0.022,0.234-0.061  c0.023-0.013,0.039-0.035,0.061-0.051c0.039-0.029,0.082-0.055,0.113-0.097l2.518-3.508c0.018-0.025,0.023-0.056,0.037-0.083  c0.006-0.012,0.018-0.017,0.021-0.028c0.006-0.012,0.004-0.023,0.008-0.035c0.01-0.034,0.014-0.067,0.018-0.103  c0.002-0.031,0.004-0.061,0.002-0.091c-0.004-0.032-0.012-0.062-0.021-0.093s-0.018-0.061-0.033-0.089  c-0.014-0.027-0.033-0.051-0.053-0.075c-0.021-0.027-0.043-0.053-0.07-0.075c-0.008-0.008-0.014-0.02-0.023-0.026  c-0.018-0.013-0.039-0.016-0.057-0.025c-0.02-0.011-0.033-0.027-0.055-0.035l-9.527-3.682l0.412-1.807c0.002-0.004,0-0.007,0-0.011  c0.008-0.034,0.004-0.069,0.004-0.105c0-0.031,0.004-0.062-0.002-0.093c-0.002-0.005,0-0.009-0.002-0.013l-0.504-2.229  c-0.016-0.064-0.043-0.126-0.082-0.183l-1.49-2.076c-0.012-0.016-0.029-0.023-0.041-0.038l-0.062-0.33  c0-0.004-0.002-0.007-0.004-0.011c0-0.003,0.002-0.006,0-0.009l-0.432-1.893c0-0.001,0-0.002,0-0.003l-0.002-0.007  c-0.008-0.032-0.025-0.057-0.039-0.086c-0.012-0.029-0.018-0.06-0.037-0.087l-0.33-2.232c-0.002-0.007-0.006-0.012-0.008-0.019  c0-0.007,0.002-0.013,0-0.02l-0.367-1.609L68.588,12.458z M68.137,25.509l8.969,3.465l-1.875,2.61l-8.041-4.756L68.137,25.509z"/><text x="0" y="115" fill="#000000" font-size="5px" font-weight="bold" font-family="'Helvetica Neue', Helvetica, Arial-Unicode, Arial, Sans-serif"></text><text x="0" y="120" fill="#000000" font-size="5px" font-weight="bold" font-family="'Helvetica Neue', Helvetica, Arial-Unicode, Arial, Sans-serif"></text></svg>