<svg xmlns="http://www.w3.org/2000/svg" data-name="Слой 1" viewBox="0 0 46.8 118.66250000000001" x="0px" y="0px"><title>джинсы муж</title><path d="M48.31,84.68c.23.22.38.38.55.53A.73.73,0,0,1,49,86.3a2.2,2.2,0,0,0-.27,2,2,2,0,0,1-.05,1.13,10.72,10.72,0,0,0-.33,3.82c.1.82-.21,1.62,0,2.44.06.26-.13.43-.38.49-1.38.34-2.64,1.2-4.18.81a2.7,2.7,0,0,0-1.4.12,3.67,3.67,0,0,1-1.28.12c-1.94-.13-3.88-.25-5.82-.39a2.13,2.13,0,0,1-1.36-.6c-.52-.51-1-1-1.56-1.54a1,1,0,0,1-.26-.94,6.88,6.88,0,0,1,.45-1.53,6.46,6.46,0,0,0,.5-3.33c0-.67-.2-.73-.89-.57-1.14.27-1.19.3-1.8-.63A27.14,27.14,0,0,0,26.43,83,5.8,5.8,0,0,1,25,80.2c-.2-.72-.38-1.46-.56-2.19-.3-1.27.09-1.87,1.16-2.69,1.66-1.26,3.56-2.21,5-3.73a8.41,8.41,0,0,1,1.74-1.34c.36-.22.55-.41.42-.91A38.85,38.85,0,0,1,32,64a7.13,7.13,0,0,1,.67-3.86c-1-.39-1.12-1.15-1.07-2.12s0-2.19,0-3.28c0-.76.25-1.5.19-2.26s-.16-1.81-.25-2.7A14.47,14.47,0,0,1,31.85,46a3,3,0,0,0-.15-1.65,7.86,7.86,0,0,1-.6-3c.07-2.28-.24-4.54-.25-6.81,0-2,0-4.09,0-6.13a2.05,2.05,0,0,1,.17-.77A4.24,4.24,0,0,0,31,24.25a18.94,18.94,0,0,1-1.07-9.48,16.8,16.8,0,0,1,1-3.61,32.92,32.92,0,0,1,1.48-3.83,1.17,1.17,0,0,0-.1-1.17c-.63-1.24,0-2.36.51-3.45.16-.33.62-.27,1-.31a36.87,36.87,0,0,1,5-.08c3.56.16,7.11.48,10.67.49,2.26,0,4.52.13,6.79,0,2.58-.13,5.16-.21,7.74-.13.79,0,1.57-.05,2.35-.06s1.34.33,1.39,1.07c.06.94.44,2-.5,2.76-.26.22-.07.5,0,.73.29.71.61,1.4.91,2.1a25,25,0,0,1,1.66,13,3.49,3.49,0,0,1-.2.77,4.61,4.61,0,0,0-.13,3.64,2.7,2.7,0,0,1,.11,1.57,7.26,7.26,0,0,0,.1,3,23.57,23.57,0,0,1,.44,5.43c0,1.78,0,3.56,0,5.34a17,17,0,0,0,.68,4.7c.72,2.58,0,4.91-1.11,7.21a10.22,10.22,0,0,1-3,3.37c-.26.21-.63.36-.59.79a4.12,4.12,0,0,1-1.68,3.36,54.92,54.92,0,0,0-6,6.63,9.43,9.43,0,0,1-1.1,1.18,22.53,22.53,0,0,0-2.65,2.7,1.58,1.58,0,0,1-1.1.79.56.56,0,0,0-.44.34c-.59,1.3-1.83,2-2.91,2.74a1.28,1.28,0,0,0-.64,1.18,25.69,25.69,0,0,0-.31,3.72A7,7,0,0,0,49.34,82a1.86,1.86,0,0,1-.78,2.38A1.35,1.35,0,0,0,48.31,84.68ZM41.1,66c-1.35,1.16-2.66,2.19-3.85,3.32a65.33,65.33,0,0,1-6.79,6.08A38.28,38.28,0,0,0,26.54,79c-.34.33-.74.73-.57,1.3a5.11,5.11,0,0,0,1.28,2.37,18.37,18.37,0,0,1,3.58,4.19.89.89,0,0,0,1.15.51c1-.34,2.28-.21,3.09-1.15a.91.91,0,0,1,.31-.16,9.42,9.42,0,0,0,2.72-1.76,27,27,0,0,1,3-2.4c1.41-.89,2.69-2,4.12-2.82a7.76,7.76,0,0,0,2-1.72,12.5,12.5,0,0,1,2.27-2,19.18,19.18,0,0,0,2.08-1.49A2,2,0,0,0,52.07,71c-.06-.14-.11-.28-.16-.42a.41.41,0,0,1,.2-.58c.2-.1.37,0,.53.12.32.21.33.59.53.87s.17.66.55.66.59-.33.73-.65a3,3,0,0,1,1-1.19,13.75,13.75,0,0,0,1.23-1.06,29.84,29.84,0,0,0,2.52-3,54.42,54.42,0,0,1,4.48-4.64c1-.94,2-2,1.39-3.57-.12-.31.06-.5.37-.59a3.72,3.72,0,0,0,1.19-.72c.38-.31.41-.61,0-.91s-.82-.58-1.22-.89a.39.39,0,0,1,.42-.66c.75.3,1.6.39,2.12,1.1a6,6,0,0,0,1.87-3.62,1.7,1.7,0,0,1,.08-.45,7.11,7.11,0,0,0-.07-4,21.6,21.6,0,0,1-.58-6.89,29.14,29.14,0,0,0-.32-7.8,9.1,9.1,0,0,1-.24-3.71,2.29,2.29,0,0,0-.09-1.46,4.34,4.34,0,0,1,.07-3.53,14.42,14.42,0,0,0,.48-5.62c0-.46-.2-.85-.72-.89a15.47,15.47,0,0,1-3-.93,9.76,9.76,0,0,1-2.21-1,14.52,14.52,0,0,1-3.57-3.09,9.91,9.91,0,0,1-2.44-4.32A.66.66,0,0,0,56.48,7c-.86,0-1.73,0-2.59,0-.62,0-.77.24-.79.81-.14,3.78-.29,7.56-.22,11.35,0,.2-.13.46.25.57a3,3,0,0,0,.27-.61,15.85,15.85,0,0,0,.47-3.94,5.7,5.7,0,0,1,0-1.7,6.91,6.91,0,0,0,.06-2c-.1-1.06-.13-2.12-.19-3.18,0-.27,0-.57.34-.62s.49.27.54.58a4.51,4.51,0,0,1,0,.9c0,2,0,4,0,6A26.38,26.38,0,0,1,54,20.11a.87.87,0,0,1-.73.79c-2.44.38-4.69-.58-4.76-3.42,0-.15,0-.3,0-.45.08-1.7.13-3.41.25-5.11a15.42,15.42,0,0,0-.17-4.18A.79.79,0,0,0,47.68,7c-1.25,0-2.51,0-3.76,0a.77.77,0,0,0-.85.61c-.09.29-.19.57-.27.87a8.46,8.46,0,0,1-3.59,5.27c-.43.27-.89.49-1.29.79-1.79,1.39-4,1.6-6.12,2-1,.19-1.09.1-1.05,1.17A18.57,18.57,0,0,0,31.91,24,4.17,4.17,0,0,1,32,27.67a1.67,1.67,0,0,0-.15.66c0,2.24-.23,4.46-.08,6.7s.1,4.31.22,6.46a5.21,5.21,0,0,0,.62,2.73,1.71,1.71,0,0,1,.22,1.58,12,12,0,0,0-.27,5.73,3.83,3.83,0,0,1,0,1.35,36.63,36.63,0,0,0-.15,5.44,1.25,1.25,0,0,0,.67,1.21c.85.5.8.53.23,1.38a3.15,3.15,0,0,0-.59,2.68A16.7,16.7,0,0,1,33,66a23.47,23.47,0,0,0,.61,3.23c1.48-1.53,2.8-2.86,4.08-4.23a4.71,4.71,0,0,1,1.43-1.15A4.79,4.79,0,0,0,41,62.19c.63-.87,1.14-1.89,2.35-2.24a2.55,2.55,0,0,0,1-.76c.93-1,2-1.79,3-2.72s2-2,1.48-3.62a5.51,5.51,0,0,1-.07-1.58c0-.57,0-1.14,0-1.71a1.31,1.31,0,0,0-.35-.92c-.61-.66-.62-.92.1-1.47a2,2,0,0,0,.77-1.69,10.36,10.36,0,0,1,.1-1.24,86.32,86.32,0,0,0,.54-9c.07-2.23.12-4.47.36-6.69,0-.35.06-.58-.32-.72-1.83-.65-1.95-2.29-2.32-3.78a.4.4,0,0,1,.17-.5.45.45,0,0,1,.59.23c.57.9,1.6,1.47,1.94,2.53.1.29.28.61.62.62a2.64,2.64,0,0,0,2.46-.7c.57-.68,1.22-1.28,1.83-1.93.35-.37.59-1,1.27-.4.16.13.27-.06.37-.17a22.78,22.78,0,0,1,5.54-4c.3-.17.71-.5.91-.15.31.51-.33.55-.63.71A23.15,23.15,0,0,0,57,24.48c-.24.25-.34,1.14-1.08.44-.11-.1-.32.17-.45.31-.56.57-1.11,1.16-1.68,1.73a3,3,0,0,0-1,2.55,14.22,14.22,0,0,0,.42,2.69c.92,2.92.58,5.92.72,8.89.08,1.74.13,3.48.19,5.22a.79.79,0,0,0,.48.8,4,4,0,0,1,1.68,1.54A9.39,9.39,0,0,0,58.06,51a2.25,2.25,0,0,1,.41.55c.18.33.49.73.11,1s-.71,0-1-.33-.57-.62-.88-.91-.74-.67-1.11-1-.54-.87-1.09-1.18c0,.79.49,1.08.88,1.48s.28.58-.27.79c-.14,0-.32,0-.34.3.28.28.59.61.92.92a3.32,3.32,0,0,1,.75,1.15.34.34,0,0,1-.1.41.35.35,0,0,1-.43,0,1.26,1.26,0,0,1-.34-.31c-.49-.79-1.33-1.26-1.92-2a.67.67,0,0,0-1-.12,7.79,7.79,0,0,0-.65.48,16.48,16.48,0,0,0-2.75,3.38,4.41,4.41,0,0,1-1.45,1.61c-1.09.7-1.9,1.69-2.91,2.47a.72.72,0,0,0-.16,1.11c.36.44.61-.06.83-.24a60.8,60.8,0,0,0,7.49-7,6.14,6.14,0,0,1,.53-.6c.2-.19.44-.37.72-.14s.09.51-.07.7a33.39,33.39,0,0,1-2.71,3c-1.7,1.51-3.32,3.11-5.17,4.46a8.38,8.38,0,0,0-.74.72c-.35.34-.59.66-.34,1.2a.75.75,0,0,1-.17,1c-.49.29-.67-.19-.94-.43,0,0-.13,0-.2-.07-.52.29-.86.94-1.67.88.16-.64.65-.94,1-1.36.17-.22.62-.25.47-.68s-.22-.65-.35-1c0-.11-.18-.13-.3-.08s-.12.18-.08.29.09.12.11.19c.21.62.16.69-.52.61a.82.82,0,0,0-1,1,4.57,4.57,0,0,0,.84,2.1A2.11,2.11,0,0,1,42.93,67c0,.3-.07.64-.45.72a.69.69,0,0,1-.77-.39C41.52,66.91,41.35,66.53,41.1,66ZM33.71,87.83a10.09,10.09,0,0,1-.34,4.48A2.24,2.24,0,0,0,34,95.13a2.7,2.7,0,0,0,2.25,1,1.92,1.92,0,0,1,1,.19,2.56,2.56,0,0,0,1.5.12,2.62,2.62,0,0,1,.92-.06c1.88.38,3.74-.18,5.61-.11a3,3,0,0,0,2-.78c.46-.43.17-1.08.16-1.64a12.67,12.67,0,0,1,.36-4.5,1.27,1.27,0,0,0,0-.67,3.35,3.35,0,0,1,.19-2.43c.14-.29,0-.47-.21-.68-.84-.76-.87-1.06,0-1.66a1.59,1.59,0,0,0,.68-1.79,22.28,22.28,0,0,1-.17-3,6.17,6.17,0,0,0,.05-1.76A13.92,13.92,0,0,1,44.7,80.4c-.42.27-.8.6-1.22.88-1.87,1.25-3.6,2.67-5.33,4.08-1,.8-2.19,1.17-3.16,1.94A2.08,2.08,0,0,1,33.71,87.83ZM49.8,53c.18,0,.3,0,.33,0a8.88,8.88,0,0,1,3.35-2.75c.1-.05.24-.11.16-.24-.38-.64.58-1.58-.51-2.09-.19-.08-.1-.42-.08-.64.33-3.63-.1-7.25-.12-10.88,0-2.13-.73-4.16-1-6.26-.06-.48,0-1.07-.5-1.46a.73.73,0,0,0-.3.7c-.07,1.32-.16,2.64-.21,4-.1,2.87-.16,5.74-.44,8.61a22.42,22.42,0,0,0-.33,4.17,1.07,1.07,0,0,1-.27.85c-.55.59-.9,1.15-.28,1.94.27.35.14.88.14,1.34C49.74,51.17,49.78,52.1,49.8,53ZM51.92,6H51.1c-.91,0-1.35-.3-1.33-.9s.46-.81,1.44-.72c.31,0,.78.33.78-.27s-.49-.34-.81-.36h-.24c-2.77-.06-5.53-.09-8.3-.32a69.61,69.61,0,0,0-8.3-.15c-.79,0-.76.47-.91.85C32.92,5.44,33.37,6,34.77,6c3.27,0,6.55.14,9.83.2,2.07,0,4.14,0,6.21.06A1.34,1.34,0,0,0,51.92,6ZM39,9.81l.7,0c1.88,0,1.89-.06,2.38-1.81,0-.08.06-.14.08-.22.13-.49-.07-.63-.58-.71-2.37-.35-4.76,0-7.14-.16a.92.92,0,0,0-1,.65c-.57,1.37-1.27,2.69-1.74,4.08a12.86,12.86,0,0,0-.84,3.18c-.06.9,0,1,.94.9s1.69-.58,2.62-.6c.43,0,.39-.4.39-.7a11.31,11.31,0,0,0-.34-3.71c-.07-.21-.25-.55,0-.6.56-.13,1-.69,1.58-.52A11,11,0,0,0,39,9.81ZM61.44,6.34l3.08-.06a5.84,5.84,0,0,0,1.72-.34c.59-.19.74-.57.64-1.29s-.39-1.08-1-1.05c-2.15.13-4.29-.13-6.45-.08-1.91,0-3.8.46-5.72.21-.61-.08-.62.41-.61.75,0,.57-.55,1.27.28,1.71a.68.68,0,0,0,.35.06,5.48,5.48,0,0,0,.7,0C56.87,6.17,59.29,6.51,61.44,6.34Zm4.78,8.94a3.75,3.75,0,0,0,2.11.72c.68.1.78,0,.68-.65a24.42,24.42,0,0,0-2.62-7.81.84.84,0,0,0-.9-.52,63.53,63.53,0,0,1-6.9.05c-.27,0-.5.07-.47.36,0,.45.16,1,.62,1.15a7.22,7.22,0,0,0,2.76.71c.9-.06,1.8,0,2.69,0s1.12.15,1.18,1.12.19,2,.22,2.94a.89.89,0,0,0,.91,1c.57.08.59.32.13.72A2,2,0,0,1,66.22,15.28ZM25.81,78.44c1.06-1,2-1.85,3-2.69,1.38-1.17,2.87-2.23,4.17-3.47,2-1.94,4.09-3.85,6.17-5.74a3.47,3.47,0,0,1,1.76-1.13c-.28-1.32-.29-1.33-1.39-.77a1.88,1.88,0,0,0-.68.43c-.92,1.19-2.24,2-3.13,3.2s-2.32,2-3.45,3c-1.87,1.69-4,3.06-6,4.59C25.34,76.64,25.2,77.11,25.81,78.44ZM52.06,8.59c-.5.22-.7.62-1,.9a.42.42,0,0,1-.62,0c-.18-.17-.09-.37.06-.5.51-.44.77-1.16,1.53-1.34a.3.3,0,0,0,.24-.35c0-.17-.18-.23-.34-.23l-2,0c-.56,0-.69.32-.54.76a10.07,10.07,0,0,1,.22,3.94,39.88,39.88,0,0,0-.09,5.78c.14,1.83.58,2.42,2.3,2.55A8.76,8.76,0,0,0,52,16.84a2.81,2.81,0,0,0-.86,1c-.16.22-.36.44-.67.22a.42.42,0,0,1-.09-.61c.38-.57.65-1.25,1.33-1.55s.37-.54.28-1.06c-.34.4-.57.69-.82,1s-.4.28-.61.09a.36.36,0,0,1,0-.52c.5-.54.71-1.29,1.32-1.73s.45-.76.24-1.28l-.36.28c-.32.21-.52.89-1,.49s.2-.64.38-.95A5.47,5.47,0,0,1,52.12,11a.43.43,0,0,0,0-.62c-.18-.14-.37,0-.5.17s-.38.47-.59.7a.33.33,0,0,1-.43,0,.28.28,0,0,1-.12-.39,2.37,2.37,0,0,1,1.3-1.39C52.22,9.35,52.17,9.07,52.06,8.59ZM64.88,15c-.12-1.59-.22-2.94-.35-4.29a.73.73,0,0,0-.78-.69c-1.43-.06-2.86.07-4.35,0A15.75,15.75,0,0,0,64.88,15Zm-29.17-.56c2.37-.5,4.9-2.5,5-4-1.56,0-3.12,0-4.67-.16-.45,0-.58.22-.57.53C35.54,12.08,35.64,13.28,35.71,14.48ZM49,25.58a1.43,1.43,0,0,0,.69,1.34A1.46,1.46,0,0,0,49,25.58Z" transform="translate(-24.32 -2.27)"/><path d="M54.57,27.34a3.12,3.12,0,0,1,.76,1.88A30.26,30.26,0,0,0,56,32.76a56,56,0,0,1,1,7.18c.25,2.26-.09,4.52,0,6.79a1.22,1.22,0,0,1,0,.33c0,.21-.12.37-.35.38a.43.43,0,0,1-.46-.28,2.12,2.12,0,0,1-.06-.67,57.26,57.26,0,0,0,0-6.68,41.89,41.89,0,0,0-1.25-8.62A23.28,23.28,0,0,1,54.27,28,.63.63,0,0,1,54.57,27.34Z" transform="translate(-24.32 -2.27)"/><path d="M47.11,24.94a.71.71,0,0,1-.78.66,1.28,1.28,0,0,1-1-.47A4.59,4.59,0,0,1,43.91,23c0-.23-.31-.42-.46-.64-.32-.49-.22-.83.33-1.09a1.38,1.38,0,0,1,1.77.42,14.57,14.57,0,0,1,1.52,3A.86.86,0,0,1,47.11,24.94Zm-1.73-2a.56.56,0,0,0-.1-.56.63.63,0,0,0-.62-.4.24.24,0,0,0-.19.1c-.11.32.17.45.35.62A.69.69,0,0,0,45.38,23Zm-.14.95a1.52,1.52,0,0,0,.55.86.32.32,0,0,0,.42,0c.17-.12.08-.27,0-.38A1.43,1.43,0,0,0,45.24,23.9Z" transform="translate(-24.32 -2.27)"/><path d="M33.28,80.27a20.11,20.11,0,0,1-2.69-.12,2.34,2.34,0,0,1-1-.27.27.27,0,0,1-.16-.27.22.22,0,0,1,.23-.2,2.48,2.48,0,0,1,.47,0A33.5,33.5,0,0,0,39.91,79c.23-.05.5-.09.56.21s-.23.37-.44.41a11.39,11.39,0,0,1-1.73.3C36.63,80.07,35,80.16,33.28,80.27Z" transform="translate(-24.32 -2.27)"/><path d="M47.63,26.91a.25.25,0,0,1-.26.29,2.12,2.12,0,0,1-1.1-.31,16.11,16.11,0,0,0-4.82-1.31c-.38,0-.74-.16-.94.38s-.59.19-.91.08a4,4,0,0,1-.63-.3.46.46,0,0,1-.26-.47c0-.23.27-.25.46-.26a13.1,13.1,0,0,1,4.75.4c1.12.34,2.21.74,3.31,1.12A.57.57,0,0,1,47.63,26.91Z" transform="translate(-24.32 -2.27)"/><path d="M58.78,25.3c.17.39.86.08.75.58s-.6.39-1,.35a1.24,1.24,0,0,1-1.18-1.17.34.34,0,0,1,.16-.39,5.12,5.12,0,0,1,2-.74.44.44,0,0,1,.31.12.29.29,0,0,1-.1.39Z" transform="translate(-24.32 -2.27)"/><path d="M44.66,28.37c0,.48.54.58.54,1-.45.28-.74,0-1-.25s-.84-.56-1-1.1c-.06-.31.1-.49.4-.58A2.09,2.09,0,0,1,46,28.53C45.51,29,45.12,28.19,44.66,28.37Z" transform="translate(-24.32 -2.27)"/><path d="M37.71,77.78c-1.82.14-3.62.73-5.45.29C33.67,77.38,36.76,77.22,37.71,77.78Z" transform="translate(-24.32 -2.27)"/><path d="M61.89,27.87c-.23.48-.46.58-.69.57a13.68,13.68,0,0,1-3.12-.4,1.33,1.33,0,0,1-.41-.21.32.32,0,0,1-.14-.39.28.28,0,0,1,.37-.18A10.14,10.14,0,0,0,61.89,27.87Z" transform="translate(-24.32 -2.27)"/><path d="M34.12,82a4.14,4.14,0,0,1-2.86.61c-.16,0-.33-.1-.35-.26s.2-.28.4-.29Z" transform="translate(-24.32 -2.27)"/><path d="M36.27,92.38a3.11,3.11,0,0,0,2.15.46c.23,0,.46,0,.69,0a.32.32,0,0,1,.22.22.34.34,0,0,1-.16.27,5.5,5.5,0,0,1-3.09,0c-.23,0-.47-.27-.43-.48.11-.49-.2-.8-.56-1.11l.17-.19,4-.08a1,1,0,0,1,.23,0c.19.06.37.13.34.37a.34.34,0,0,1-.42.3,10,10,0,0,0-2.67.09A3.34,3.34,0,0,0,36.27,92.38Z" transform="translate(-24.32 -2.27)"/><text x="0" y="109.93" fill="#000000" font-size="5px" font-weight="bold" font-family="'Helvetica Neue', Helvetica, Arial-Unicode, Arial, Sans-serif"></text><text x="0" y="114.93" fill="#000000" font-size="5px" font-weight="bold" font-family="'Helvetica Neue', Helvetica, Arial-Unicode, Arial, Sans-serif"></text></svg>