<svg xmlns="http://www.w3.org/2000/svg" xmlns:xlink="http://www.w3.org/1999/xlink" version="1.1" x="0px" y="0px" viewBox="0 0 100 125" enable-background="new 0 0 100 100" xml:space="preserve"><polygon points="76.395,29.497 67.428,26.032 66.479,27.352 74.521,32.108 "/><path d="M65.213,13.885c0.002,0.006,0.006,0.012,0.006,0.018l0.332,2.232c0.018,0.027,0.023,0.059,0.037,0.088  c0.012,0.029,0.031,0.053,0.039,0.086l0.002,0.006c0,0.002,0,0.002,0,0.004l0.432,1.893c0,0.002-0.002,0.006,0,0.008  c0,0.004,0.004,0.008,0.004,0.012l0.061,0.33c0.014,0.014,0.029,0.021,0.041,0.037l1.49,2.076c0.041,0.057,0.068,0.119,0.082,0.184  l0.506,2.229c0,0.004,0,0.008,0,0.014c0.006,0.029,0.002,0.061,0.002,0.092c0,0.037,0.004,0.072-0.002,0.105  c-0.002,0.004,0,0.008,0,0.012l-0.414,1.807l9.527,3.682c0.021,0.008,0.037,0.023,0.055,0.035c0.02,0.01,0.039,0.012,0.057,0.025  c0.012,0.006,0.016,0.018,0.025,0.025c0.027,0.023,0.049,0.049,0.07,0.076c0.02,0.023,0.037,0.047,0.053,0.074  c0.014,0.029,0.023,0.059,0.031,0.09c0.01,0.031,0.02,0.061,0.021,0.092c0.004,0.031,0,0.061-0.002,0.092  c-0.004,0.035-0.008,0.068-0.018,0.102c-0.004,0.012-0.002,0.023-0.006,0.035s-0.018,0.018-0.023,0.029  c-0.012,0.027-0.018,0.057-0.037,0.082l-2.518,3.508c-0.029,0.043-0.074,0.068-0.113,0.098c-0.021,0.016-0.035,0.037-0.059,0.051  c-0.072,0.037-0.152,0.061-0.234,0.061c-0.086,0-0.174-0.023-0.254-0.07l-8.619-5.098l-2.104,1.582  c-0.01,0.008-0.021,0.004-0.031,0.012c-0.023,0.014-0.041,0.035-0.066,0.047l-3.092,1.371c-0.014,0.006-0.029,0.004-0.043,0.008  c-0.016,0.006-0.027,0.018-0.043,0.021l-3.598,0.859c-0.023,0.006-0.045,0.006-0.068,0.008c-0.006,0-0.012,0.004-0.018,0.004  l-3.861,0.242c-0.01,0.002-0.02,0.002-0.029,0.002c-0.002,0-0.002,0-0.002,0l0,0l0,0l0,0c-0.014,0-0.027-0.002-0.041-0.002  l-3.861-0.322c-0.005,0-0.008-0.004-0.013-0.004c-0.018-0.002-0.034-0.002-0.052-0.006l-3.326-0.717l-1.12,4.76l-0.929,4.023  l-0.412,1.854l-0.346,1.98l0,0l-0.341,2.062l-0.165,2.146l-0.036,2.188l0.388,2.263l0.321,1.516c0.001,0.004-0.001,0.008,0,0.014  c0.001,0.004,0.004,0.008,0.005,0.012l0.233,1.492l0.344,0.084l9.356,0.709l9.361-0.709l8.707-2.086l7.457-3.3l5.703-4.293  l0.176-0.207l3.6-5.018l1.219-5.348l0.025-0.406l-1.232-5.406l-0.066-0.244l-1.299-1.924c0-0.002,0-0.002,0-0.002l-0.648-0.902  v-0.002l-2.871-4.004c0-0.002-0.002-0.002-0.002-0.002l-0.549-0.764l-1.041-0.941l-5.264-3.965l-0.943-0.611l-6.559-2.904  l-0.732-0.293l-3.035-0.725l0.369,1.609C65.213,13.872,65.211,13.877,65.213,13.885z"/><path d="M34.377,47.12c0.003-0.014-0.001-0.027,0.003-0.043l0.527-1.986c0.001-0.004,0.005-0.006,0.005-0.01  c0.002-0.006,0.001-0.01,0.002-0.014l0.613-1.936c0.002-0.006,0.007-0.01,0.009-0.016s0.001-0.01,0.003-0.016l0.727-1.842v-0.002  l0.697-1.795c0.002-0.002,0.004-0.004,0.004-0.006c0.002-0.002,0.001-0.004,0.002-0.008l0.717-1.701l0,0l1.921-4.629  c0-0.002,0-0.002,0-0.002l1.242-3.078l-3.743,1.877c-0.001,0-0.001,0-0.001,0l-5.333,2.723l-0.861,0.523  c-0.007,0.004-0.015,0.002-0.021,0.006l-0.158,0.104c-0.002,0.002-0.005,0.002-0.007,0.002c-0.003,0.002-0.005,0.006-0.007,0.008  l-0.649,0.393l-1.63,1.207l-1.486,1.34l-1.389,1.447l-1.226,1.512l-1.136,1.51l-0.554,1.023l-1.049,2.201l0.013,0.014l1.069,0.803  h0.001l4.63,3.488l6.486,2.873l0.29-2.453l0.083-1.35c0-0.002,0.002-0.004,0.002-0.006c0-0.004-0.001-0.006-0.001-0.01l0.193-2.113  C34.368,47.145,34.375,47.133,34.377,47.12z"/><path d="M12.883,78.877l2.199,0.27c0.001,0,0.001,0,0.002,0l2.25,0.281c0.021,0.002,0.04,0.014,0.061,0.02  c0.021,0.006,0.042,0.004,0.062,0.012l1.562,0.625c0.008,0.004,0.013,0.01,0.021,0.014c0.031,0.014,0.058,0.035,0.086,0.057  c0.026,0.02,0.052,0.035,0.073,0.059c0.006,0.008,0.015,0.01,0.021,0.018l0.767,0.93l0.745,0.803l1.396,0.557l1.987,0.287  l0.062-0.027l-1.189-14.133l-1.992-13.34c-0.002-0.006,0.001-0.012,0-0.018c0-0.006-0.004-0.012-0.004-0.018l-0.553-6.837  l-0.053-0.639c-0.001-0.006,0.002-0.01,0.001-0.014c0-0.004-0.003-0.008-0.003-0.014l-0.033-1.131c0-0.021,0.009-0.041,0.011-0.062  s-0.003-0.041,0.001-0.062l0.088-0.389c0.002-0.008,0.009-0.016,0.012-0.023c0.002-0.01,0-0.018,0.003-0.025l0.08-0.236  c0-0.002,0.001-0.002,0.001-0.002c0-0.002,0-0.002,0-0.002l0.045-0.129c0.004-0.01,0.012-0.018,0.016-0.027s0.004-0.02,0.008-0.027  c0.007-0.014,0.02-0.023,0.027-0.037c0.005-0.012,0.004-0.027,0.01-0.039l1.1-2.307c0.002-0.004,0.006-0.006,0.008-0.01  s0.001-0.01,0.004-0.014l0.576-1.066c0.006-0.012,0.017-0.018,0.023-0.029c0.008-0.01,0.009-0.023,0.017-0.033l1.158-1.539  c0.002-0.004,0.005-0.004,0.008-0.008c0.001-0.002,0.002-0.004,0.003-0.006l1.256-1.549c0.005-0.006,0.011-0.008,0.016-0.012  c0.005-0.008,0.006-0.016,0.012-0.021l1.404-1.463c0.005-0.004,0.012-0.006,0.017-0.01c0.004-0.004,0.005-0.01,0.01-0.014  l1.525-1.377c0.006-0.006,0.014-0.008,0.021-0.012c0.006-0.006,0.01-0.014,0.018-0.02l1.664-1.23  c0.006-0.006,0.014-0.006,0.021-0.01c0.007-0.006,0.011-0.012,0.017-0.016l0.668-0.404l0.162-0.107  c0.003-0.002,0.006-0.002,0.01-0.004c0.002,0,0.004-0.004,0.006-0.006c0.011-0.006,0.023-0.006,0.034-0.012l0.866-0.527  c0.005-0.002,0.012-0.002,0.017-0.006c0.006-0.004,0.009-0.01,0.016-0.012l5.348-2.73c0.001,0,0.001,0,0.001,0  c0.001-0.002,0.002-0.002,0.002-0.002l4.916-2.463c0.008-0.004,0.018-0.004,0.025-0.008c0.039-0.018,0.081-0.025,0.124-0.033  c0.018-0.002,0.034-0.01,0.052-0.012c0.074-0.006,0.149,0,0.223,0.029c0.234,0.096,0.349,0.348,0.289,0.586  c-0.004,0.016-0.004,0.031-0.009,0.045c-0.003,0.006-0.001,0.014-0.004,0.021l-1.738,4.305c0,0-0.001,0-0.001,0.002  c-0.001,0-0.001,0-0.001,0.002l-1.924,4.639h-0.001v0.002l-0.716,1.699L37.2,41.618c-0.001,0.002-0.002,0.002-0.002,0.002v0.002  l-0.721,1.826l-0.605,1.91l-0.514,1.934l-0.189,2.072l-0.083,1.35c0,0.006-0.003,0.01-0.004,0.014c0,0.006,0.002,0.01,0.001,0.016  l-0.338,2.865l-0.021,0.258c0,0.002,0,0.002,0,0.002c0,0.002,0,0.002,0,0.002l-0.014,0.156c0,0.004-0.002,0.006-0.003,0.01  c0,0.004,0.001,0.006,0.001,0.01l-0.053,0.416c-0.002,0.012-0.008,0.02-0.01,0.031c-0.002,0.01,0.001,0.02-0.002,0.031l-0.252,0.979  c0,0.002-0.003,0.002-0.004,0.006c0,0.002,0,0.006,0,0.008l-1.803,6.18c-0.002,0.004-0.004,0.004-0.006,0.008  c-0.001,0.004,0,0.01-0.002,0.016l-3.53,10.316l-3.431,11.674l1.322,1.582l2.003,1.42l2.479,1.02h0.001l2.586,1.008  c0.02,0.008,0.033,0.023,0.052,0.033s0.038,0.014,0.056,0.025l2.105,1.49c0.021,0.014,0.031,0.035,0.049,0.051  c0.018,0.018,0.039,0.027,0.055,0.047l1.484,1.875c0,0,0,0.002,0.001,0.002c0,0,0,0,0.001,0l1.422,1.822l2,1.416l2.236,0.857  L42.959,81.23c0-0.002,0.002-0.004,0.002-0.008c0-0.002-0.002-0.006-0.002-0.008l-0.008-13.658l-0.28-7.943l-0.073-1.211  l-0.071-0.447l-0.097-0.479c-0.001-0.004,0.001-0.008,0-0.012c-0.001-0.006-0.004-0.008-0.004-0.012l-0.224-1.445  c0,0-0.001,0-0.001-0.002l0,0v-0.002l-0.283-1.809l-0.319-1.508c-0.001-0.004,0.001-0.006,0-0.01s-0.003-0.006-0.003-0.01  l-0.398-2.322c-0.003-0.016,0.002-0.029,0.001-0.045c-0.001-0.018-0.009-0.031-0.009-0.047l0.037-2.248  c0-0.006,0.003-0.01,0.004-0.016c0-0.006-0.003-0.01-0.002-0.016l0.168-2.184c0-0.008,0.005-0.014,0.006-0.021  s-0.002-0.014-0.001-0.021l0.346-2.09c0-0.002,0.001-0.002,0.001-0.002v-0.002l0.348-1.992c0-0.004,0.003-0.008,0.004-0.012  c0-0.004-0.001-0.008,0-0.012l0.414-1.863c0,0,0.001,0,0.001-0.002c0,0,0,0,0-0.002l0.93-4.027h0.001v-0.002l1.244-5.285  c0,0,0.001-0.002,0.002-0.004c0,0-0.001-0.002,0-0.002c0.001-0.008,0.006-0.012,0.008-0.02c0.002-0.01-0.001-0.02,0.002-0.029  l0.139-0.59c0.062-0.27,0.334-0.441,0.601-0.371c0.269,0.062,0.436,0.332,0.372,0.6l-0.045,0.193l3.282,0.707l3.786,0.316  l3.783-0.236l3.512-0.84l2.998-1.33l2.262-1.701l1.391-1.936l0.463-2.018l-0.459-2.021l-0.238-0.332l0.045,0.246  c0.051,0.271-0.129,0.533-0.4,0.584c-0.031,0.004-0.062,0.008-0.092,0.008c-0.236,0-0.447-0.168-0.492-0.41l-0.236-1.285  l-0.068,0.301c0,0,0,0.002-0.002,0.002c-0.014,0.064-0.041,0.119-0.076,0.17c-0.002,0.002-0.002,0.006-0.004,0.01l-1.238,1.727  c-0.01,0.014-0.027,0.02-0.039,0.033c-0.021,0.025-0.037,0.053-0.066,0.074l-1.971,1.482c-0.01,0.008-0.021,0.004-0.031,0.012  c-0.023,0.014-0.041,0.035-0.066,0.047l-2.568,1.137c-0.014,0.006-0.027,0.004-0.041,0.008c-0.016,0.006-0.029,0.018-0.045,0.021  l-2.99,0.717c-0.002,0-0.004,0-0.006,0l0,0l-6.419,1.461c-0.018,0.004-0.034,0.004-0.051,0.006  c-0.006,0.002-0.011,0.004-0.018,0.006l-2.988,0.26c-0.014,0-0.028,0.002-0.043,0.002l0,0c-0.003,0-0.005-0.002-0.007-0.002  c-0.055,0-0.11-0.01-0.165-0.029l-2.568-0.941c-0.005-0.002-0.008-0.006-0.014-0.008c-0.049-0.02-0.096-0.045-0.139-0.08  l-1.971-1.678c-0.056-0.049-0.097-0.105-0.126-0.168c-0.001-0.002-0.003-0.004-0.005-0.006l-1.238-2.703  c-0.008-0.018-0.006-0.035-0.012-0.053c-0.01-0.027-0.023-0.051-0.027-0.08l-0.148-0.99l-0.152,0.738  c-0.049,0.236-0.258,0.398-0.49,0.398c-0.033,0-0.067-0.004-0.102-0.012c-0.27-0.055-0.443-0.32-0.389-0.59l0.1-0.48l-0.291,0.406  l-0.461,1.967l0.459,1.994l0.794,1.154l0.261-0.09l1.166-0.627c0.242-0.129,0.545-0.039,0.677,0.205  c0.131,0.242,0.04,0.545-0.204,0.676l-1.199,0.645c-0.011,0.006-0.023,0.004-0.034,0.01c-0.015,0.006-0.024,0.018-0.04,0.023  l-0.66,0.227c0,0-0.001,0-0.002,0l-2.098,0.711h-0.001c-0.001,0.002-0.001,0.002-0.001,0.002l-9.613,3.195l-2.125,0.869  l-0.423,0.213c-0.001,0-0.001,0-0.002,0s-0.002,0.002-0.003,0.002l-1.718,0.834l-1.928,1.158l-1.81,1.223l-1.676,1.303  c0,0,0,0-0.001,0c0,0,0,0-0.001,0l-1.347,1.039c-0.001,0.002-0.001,0.002-0.003,0.004l-0.193,0.148l-0.803,0.828l-1.686,1.99  l-0.176,0.26l-0.125,0.252l-0.17,1.021l-0.397,3.619l-0.414,3.787l-0.14,4.033l-0.326,9.52c-0.001,0.006-0.004,0.012-0.005,0.018  c0,0.006,0.003,0.012,0.002,0.018L10.958,77.65l0.54,0.674L12.883,78.877z"/><path d="M16.865,36.438L16.865,36.438l0.048,0.211l0.729-0.561l0,0l1.689-1.312c0.005-0.004,0.01-0.004,0.015-0.008  s0.007-0.01,0.013-0.012l1.838-1.242c0.003-0.004,0.008-0.004,0.012-0.006s0.006-0.006,0.01-0.01l1.957-1.176  c0.007-0.004,0.015-0.004,0.021-0.006c0.006-0.004,0.011-0.012,0.018-0.016l1.734-0.842c0.001,0,0.001,0,0.002,0l0.435-0.217  c0.006-0.004,0.013-0.002,0.019-0.006c0.006-0.002,0.01-0.008,0.016-0.01l2.156-0.883c0.006-0.002,0.012-0.002,0.017-0.004  c0.006-0.002,0.01-0.006,0.015-0.008l9.627-3.201l1.471-0.498l-0.689-1c0-0.002,0-0.004-0.002-0.006  c-0.033-0.049-0.059-0.104-0.073-0.166l-0.506-2.199c-0.001-0.004,0.001-0.008-0.001-0.014c-0.006-0.031-0.002-0.064-0.002-0.098  c0-0.035-0.004-0.068,0.003-0.102c0.001-0.004-0.001-0.008,0.001-0.014l0.508-2.172c0,0,0,0,0.001,0l0.001-0.004  c0.014-0.061,0.042-0.115,0.075-0.166c0.003-0.002,0.003-0.008,0.005-0.01s0.003-0.006,0.005-0.008l1.485-2.07  c0.015-0.021,0.037-0.033,0.054-0.051c0.02-0.02,0.032-0.043,0.056-0.061l0.036-0.027l0.388-2.133  c0.001-0.004,0.004-0.008,0.005-0.01c0.007-0.035,0.024-0.066,0.04-0.1c0.012-0.025,0.018-0.055,0.032-0.078l0.333-2.244  c0-0.006,0.005-0.012,0.006-0.018c0.002-0.008,0-0.014,0.001-0.02l0.139-0.607v-0.002l0.022-0.1l0.139-0.611h0.001l0.065-0.289  l-3.033,0.725l-0.731,0.291l-6.562,2.906l-0.939,0.609l-5.271,3.969l-1.036,0.939l-0.549,0.764c0,0-0.001,0-0.001,0.002  l-2.526,3.523l0,0l-0.987,1.373l-1.304,1.939l-0.068,0.24l-1.234,5.406l0.027,0.406L16.865,36.438z"/><polygon points="42.508,24.032 44.327,25.581 46.708,26.454 49.551,26.206 55.93,24.754 55.93,24.754 58.879,24.047 61.35,22.954   63.215,21.549 64.35,19.969 64.734,18.276 64.703,17.252 64.578,16.399 64.578,16.397 64.232,14.067 63.844,12.362 63.576,11.778   62.469,10.235 62.082,9.819 60.406,8.557 57.883,7.44 55.457,6.86 52.838,6.661 50.217,6.86 47.793,7.438 45.269,8.557   43.592,9.819 43.208,10.235 42.105,11.772 41.832,12.364 41.741,12.766 41.741,12.766 41.602,13.377 41.601,13.379 41.601,13.379   41.578,13.481 41.577,13.483 41.444,14.067 41.096,16.411 40.972,17.249 40.939,18.78 41.346,21.495 "/><text x="0" y="115" fill="#000000" font-size="5px" font-weight="bold" font-family="'Helvetica Neue', Helvetica, Arial-Unicode, Arial, Sans-serif"></text><text x="0" y="120" fill="#000000" font-size="5px" font-weight="bold" font-family="'Helvetica Neue', Helvetica, Arial-Unicode, Arial, Sans-serif"></text></svg>