<svg xmlns="http://www.w3.org/2000/svg" xmlns:xlink="http://www.w3.org/1999/xlink" version="1.1" x="0px" y="0px" viewBox="0 0 100 125" style="enable-background:new 0 0 100 100;" xml:space="preserve"><path d="M88.15771,59.94434c-0.57861-3.18353-1.78754-6.21625-3.49146-8.94299c0-0.00049,0.00024-0.00085,0.00024-0.00134V40.70117  c0-11.04736-8.9873-20.03467-20.03418-20.03467h-4.85034c1.1864-1.12805,1.93091-2.71667,1.93091-4.479  c0-3.41162-2.77588-6.1875-6.1875-6.1875C53.10974,10,51.01843,11.3949,50,13.41858C48.98157,11.3949,46.89026,10,44.47461,10  c-3.41162,0-6.1875,2.77588-6.1875,6.1875c0,1.76233,0.74451,3.35095,1.93091,4.479h-4.85034  c-11.04688,0-20.03418,8.9873-20.03418,20.03467V51c0,0.00012,0.00006,0.00024,0.00006,0.00037  c-1.70312,2.72412-2.91083,5.75116-3.48688,8.92151l-1.58398,7.70898C10.08838,68.58984,10,69.5708,10,70.5459v3.1582  c0,4.15283,1.56396,8.10986,4.40381,11.1416C17.47266,88.12158,21.80762,90,26.2959,90h47.4082  c4.48828,0,8.82324-1.87842,11.89258-5.1543C88.43604,81.81396,90,77.85693,90,73.7041v-3.1582  c0-0.9751-0.08838-1.95605-0.26709-2.9375L88.15771,59.94434z M55.52539,12c2.30908,0,4.1875,1.87842,4.1875,4.1875  s-1.87842,4.1875-4.1875,4.1875s-4.1875-1.87842-4.1875-4.1875S53.21631,12,55.52539,12z M44.47461,12  c2.30908,0,4.1875,1.87842,4.1875,4.1875s-1.87842,4.1875-4.1875,4.1875s-4.1875-1.87842-4.1875-4.1875S42.16553,12,44.47461,12z   M50,18.95642c0.32306,0.64197,0.75293,1.21954,1.2688,1.71008h-2.5376C49.24707,20.17596,49.67694,19.59839,50,18.95642z   M17.3335,40.70117c0-9.94434,8.09033-18.03467,18.03418-18.03467h29.26465c9.94385,0,18.03418,8.09033,18.03418,18.03467v7.5188  c-0.80652-0.97253-1.67554-1.89557-2.62305-2.74048c-1.49268-1.33105-2.34912-3.2417-2.34912-5.2417  c0-7.5752-6.16309-13.73779-13.73828-13.73779H36.04395c-7.5752,0-13.73828,6.16309-13.73828,13.73828  c0,2-0.85645,3.91016-2.34912,5.24121c-0.94751,0.84497-1.81653,1.76807-2.62305,2.74036V40.70117z M88,73.7041  c0,3.64355-1.37207,7.11475-3.86279,9.77441C81.44434,86.35205,77.6416,88,73.7041,88H26.2959  c-3.9375,0-7.74023-1.64795-10.43262-4.52148C13.37207,80.81885,12,77.34766,12,73.7041v-3.1582  c0-0.85547,0.07764-1.71582,0.22607-2.53516l1.58398-7.70898c0.93213-5.12695,3.5874-9.86084,7.47754-13.3291  c1.91797-1.71045,3.01807-4.16504,3.01807-6.73486c0-6.47217,5.26562-11.73779,11.73828-11.73779h27.91211  c6.47266,0,11.73828,5.26562,11.73828,11.73828c0,2.56934,1.1001,5.02393,3.01807,6.73438  c3.89014,3.46826,6.54541,8.20215,7.48193,13.35156l1.5752,7.66406C87.92236,68.83008,88,69.69043,88,70.5459V73.7041z"/><text x="0" y="115" fill="#000000" font-size="5px" font-weight="bold" font-family="'Helvetica Neue', Helvetica, Arial-Unicode, Arial, Sans-serif"></text><text x="0" y="120" fill="#000000" font-size="5px" font-weight="bold" font-family="'Helvetica Neue', Helvetica, Arial-Unicode, Arial, Sans-serif"></text></svg>