<svg xmlns="http://www.w3.org/2000/svg" xmlns:xlink="http://www.w3.org/1999/xlink" version="1.1" x="0px" y="0px" viewBox="0 0 100 125" enable-background="new 0 0 100 100" xml:space="preserve"><path d="M17.391,41.23c11.262-0.072,18.553,0.173,18.553,0.173c14.014,0.507,16.789,3.456,16.789,3.456  c0.856,0.476,3.789-0.254,3.789-0.254c1.332-0.333,0.951-1.046,0.951-1.046c-0.095-1.522-1.427-1.427-1.427-1.427l-7.99-1.046  c-9.816-1.675-31.765-3.494-35.612-3.806C13.792,38.152,15.916,39.644,17.391,41.23z"/><path d="M13.112,62.26c0.988-0.66,1.177-1.886,1.179-1.898c0.849-5.659,2.166-10.166,2.179-10.211l0.009-0.03l0.016-0.027  c0.19-0.311-0.181-1.335-0.491-1.93l-0.014-0.028l-0.007-0.03c-0.744-3.328-0.633-5.688-0.604-6.117  c-0.863-1.717-4.181-3.867-4.215-3.889l-0.014-0.01c-2.841-2.125-4.587-2.313-5.551-2.096c-0.162,0.036-0.306,0.086-0.436,0.141  c-0.704,1.306-0.481,7.995-0.481,7.995c0.38,14.173,5.073,17.597,5.073,17.597c0.76,0.506,1.347,0.791,1.788,0.948  C12.153,62.688,12.678,62.549,13.112,62.26z M15.25,48.25c0,0.031-0.281,2.718-0.689,5.922c-0.838,6.582-1.549,7.074-1.814,7.236  c-0.042,0.024-0.319,0.198-0.859,0.198c-0.998,0-2.493-0.585-4.176-3.37l-0.013-0.024c-0.019-0.042-1.923-4.237-2.256-9.543  c-0.023-0.205-0.58-5.345-0.348-8.993c0.109-1.231,0.37-2.691,0.996-2.691c0.014,0,0.029,0.001,0.043,0.002  c0.082-0.026,0.215-0.055,0.411-0.055c0.804,0,2.517,0.498,6.232,3.831C15.667,42.974,15.25,48.25,15.25,48.25z"/><path d="M11.428,37.705c0.212,0.137,3.214,2.098,4.256,3.857c0.214-0.111,0.509-0.14,1.335-0.038l-0.084-0.08l-0.048-0.056  c-1.609-1.863-4.135-3.571-5.33-4.327c-2.041-1.134-3.486-1.494-4.467-1.537C8.337,35.752,9.789,36.48,11.428,37.705z"/><path d="M23.91,43.902c-3.024-1.249-5.975-1.968-6.175-2.016c-0.558-0.052-0.958-0.05-1.241-0.027  c1.179,0.22,3.517,0.971,6.99,2.245C23.572,44.052,23.71,43.98,23.91,43.902z"/><path d="M72.93,57.542c1.998-0.095,6.611-0.761,6.611-0.761c1.712-0.333,12.366-1.712,12.366-1.712  c2.521-0.095,2.735-0.975,2.735-0.975c0.285-1.878-0.595-1.95-0.595-1.95c-1.308-0.428-1.427,0.285-1.427,0.285  c-0.238,0.69-4.296,0.896-4.296,0.896c-9.829,0.698-30.217-0.602-30.217-0.602c-1.918-0.048-3.012-0.856-3.012-0.856  c-8.688-4.946-15.283-6.658-15.283-6.658c-8.796-2.475-12.955-2.093-14.667-1.634c1.979-0.348,5.921-0.392,13.316,1.515  c0.121,0.036,11.427,3.387,16.491,7.174l0.019,0.015c0.009,0.008,0.951,0.847,2.642,0.936l0.017,0.002  c0.128,0.016,13.049,1.587,34.599-0.001c1.142-0.082,1.402-0.227,1.402-0.227c-0.143,0.559-1.367,0.701-1.367,0.701  c-7.234,0.532-13.499,0.71-18.638,0.71c-10.041,0-15.781-0.678-16.047-0.711c-1.79-0.097-2.803-0.948-2.92-1.052  c-5.001-3.733-16.212-7.057-16.325-7.09c-11.817-3.047-14.645-1.013-14.672-0.993l-0.104,0.08l-0.125-0.043  c-6.603-2.427-7.491-2.347-7.571-2.33c0.033-0.007,0.108-0.054,0.132-0.152l-0.144-0.035c-0.025,0.455-0.081,2.267,0.369,4.792  c0.06-0.096,0.135-0.182,0.232-0.253c0.489-0.356,1.29-0.017,2.449,0.707l0,0c2.924,1.296,2.339,2.936,2.339,2.936  c-0.404,0.634-0.452,1.102-0.452,1.102c1.015,9.258,3.868,13.824,3.868,13.824c2.727,5.073,7.166,6.849,7.166,6.849  c9.639,4.058,13.634,2.283,13.634,2.283c5.834-1.966,6.849-9.702,6.849-9.702c0.698-4.122,1.411-5.168,1.411-5.168  c0.38-1.332,4.138-1.237,4.138-1.237S66.297,57.959,72.93,57.542z M50.829,60.006c-0.037,0.43-0.95,10.597-5.138,12.746  l-0.012,0.006c-0.053,0.024-1.325,0.578-3.729,0.578c-3.074,0-6.472-0.877-10.099-2.607c-0.112-0.047-1.395-0.601-2.946-1.881  c-1.463-1.208-3.443-3.319-4.567-6.512c-0.098-0.241-2.52-6.305-1.758-14.264c0.002-0.03,0.073-0.836,0.844-1.633  c1.002-1.037,2.658-1.563,4.921-1.563c1.315,0,2.843,0.183,4.541,0.545c0.633,0.15,15.372,3.681,17.187,8.045  C50.233,53.704,51.251,55.429,50.829,60.006z"/><path d="M18.711,49.362c-0.387-0.953-0.414-1.563-0.373-1.901c-1.036-0.602-1.448-0.578-1.607-0.461  c-0.317,0.231-0.231,0.951-0.168,1.225c0.244,0.526,0.645,1.55,0.356,2.087c-0.109,0.377-1.347,4.72-2.157,10.12  c-0.008,0.058-0.223,1.448-1.385,2.224c-0.013,0.009-0.027,0.016-0.04,0.024l0.984-0.223c2.315-0.539,3.837-3.678,3.837-3.678  c1.807-3.012,0.761-7.451,0.761-7.451C18.791,50.757,18.711,49.362,18.711,49.362z"/><g><path d="M50.031,54.561c-0.182-0.584-0.355-0.835-0.36-0.841l-0.017-0.023l-0.012-0.028c-0.08-0.198-0.191-0.395-0.328-0.59   L32.075,70.307c0.522,0.249,1.029,0.474,1.521,0.678L50.031,54.561z"/><path d="M39.925,72.73c0.774,0.095,1.451,0.13,2.026,0.13c2.217,0,3.442-0.498,3.531-0.535c2.655-1.371,3.939-6.438,4.498-9.644   L39.925,72.73z"/><path d="M24.786,62.172c1.322,3.76,3.877,6.013,5.574,7.16L47.953,51.75c-4.376-3.282-15.043-5.836-15.171-5.866   c-1.66-0.354-3.154-0.534-4.436-0.534c-5.018,0-5.289,2.735-5.291,2.762c-0.763,7.97,1.701,13.987,1.726,14.047L24.786,62.172z"/></g><g><path d="M14.501,52.261c0.044-0.401,0.086-0.801,0.126-1.197l-6.198,7.415c0.136,0.204,0.269,0.392,0.401,0.567L14.501,52.261z"/><path d="M6,48.634c0,3.359,1.018,6.264,1.602,7.918l7.326-8.79c0.128-4.644-2.23-6.614-2.253-6.633l-0.014-0.008   c-3.735-3.351-5.52-3.713-6.112-3.713c-0.196,0-0.284,0.038-0.285,0.039l-0.093,0.051l-0.072-0.03   c-0.19,0.152-0.391,1.178-0.486,2.245C5.378,43.368,6,48.57,6,48.622V48.634z"/><path d="M9.451,59.785c1.075,1.134,1.969,1.345,2.484,1.345c0.391,0,0.634-0.116,0.665-0.132c0.653-0.414,1.253-3.55,1.695-7.009   L9.451,59.785z"/></g><text x="0" y="115" fill="#000000" font-size="5px" font-weight="bold" font-family="'Helvetica Neue', Helvetica, Arial-Unicode, Arial, Sans-serif"></text><text x="0" y="120" fill="#000000" font-size="5px" font-weight="bold" font-family="'Helvetica Neue', Helvetica, Arial-Unicode, Arial, Sans-serif"></text></svg>